<svg version="1.1" id="Layer_1" xmlns="http://www.w3.org/2000/svg" xmlns:xlink="http://www.w3.org/1999/xlink" x="0px" y="0px"
	 width="100%" viewBox="0 0 1024 1024" enable-background="new 0 0 1024 1024" xml:space="preserve">
<path fill="#000000" opacity="1.000000" stroke="none" 
	d="
M630.852051,857.917297 
	C606.500366,874.824402 579.341614,882.301331 550.601685,885.411133 
	C522.605896,888.440552 494.802917,887.646423 466.961639,883.393250 
	C428.863342,877.573181 397.091461,860.124695 371.030823,832.149475 
	C338.837799,797.591370 317.393494,756.578918 300.572266,712.882202 
	C290.356476,686.344543 283.633667,658.886475 280.017029,630.750427 
	C276.696503,604.917847 276.833557,578.995544 279.416473,553.016602 
	C282.833954,518.643372 290.988007,485.374268 303.123901,453.230103 
	C328.214935,386.771851 362.895996,325.812042 409.975555,272.236938 
	C420.221375,260.577484 431.420410,249.881332 442.489471,239.044922 
	C443.668915,237.890289 445.067261,236.959320 446.265656,236.003159 
	C444.796875,233.518570 442.902191,233.933243 441.440125,233.578033 
	C431.139954,231.075745 424.541870,222.866013 424.841370,212.718857 
	C425.131348,202.896301 432.615601,194.425812 442.695709,192.783340 
	C451.799042,191.300034 460.995453,192.383514 470.144684,192.084076 
	C471.143463,192.051392 472.146729,192.121765 473.143372,192.064835 
	C476.284760,191.885422 479.880829,193.124146 482.459290,191.350540 
	C485.372253,189.346832 482.850677,185.756714 483.281860,182.887863 
	C484.688873,173.526215 489.790253,167.316299 498.882019,164.706848 
	C509.856323,161.557114 521.034912,161.590759 531.962097,164.519257 
	C544.354004,167.840271 549.082275,176.433914 547.830261,192.292068 
	C557.587219,192.292068 567.320435,192.594559 577.024902,192.196976 
	C584.884216,191.874985 592.410645,192.154907 598.781189,197.413971 
	C605.477600,202.942123 607.693298,210.170822 605.739807,218.489227 
	C603.799316,226.752289 598.299988,231.618668 590.052612,233.438934 
	C588.477844,233.786514 586.910889,234.169662 585.269897,234.552841 
	C585.772949,236.823868 587.522461,237.714401 588.808044,238.897232 
	C629.283569,276.137054 661.640076,319.639099 688.583618,367.412415 
	C704.002441,394.751343 717.429321,423.008484 728.136658,452.471405 
	C741.431946,489.055328 750.568665,526.600281 753.408386,565.630676 
	C757.024231,615.326904 749.143066,663.285828 732.218567,709.785583 
	C714.331848,758.928833 689.779968,804.212463 651.759155,841.130188 
	C645.404968,847.299988 638.350525,852.597717 630.852051,857.917297 
M676.511292,657.920349 
	C695.096741,654.975098 713.628906,651.745789 731.950867,647.413269 
	C740.496643,645.392578 740.342468,645.347961 741.770020,636.333557 
	C745.860168,610.506409 745.947327,584.587280 743.821899,558.606445 
	C741.583435,531.244873 735.168762,504.733154 727.520447,478.466400 
	C726.537354,475.090149 724.939270,474.116333 721.351685,474.764465 
	C695.797668,479.381195 670.142761,483.318359 644.357971,486.493835 
	C606.794739,491.119904 569.091309,493.358063 531.282532,494.113861 
	C502.949188,494.680267 474.635529,493.828400 446.362885,492.048462 
	C429.584656,490.992218 412.811890,489.625702 396.097046,487.835083 
	C368.113129,484.837280 340.279785,480.671326 312.672821,475.179962 
	C307.282776,474.107819 304.887878,475.594208 303.385162,480.725128 
	C294.646484,510.562347 289.221619,540.954834 287.048492,571.973267 
	C285.632324,592.187622 286.726593,612.313110 289.501129,632.273804 
	C291.764343,648.556030 288.408112,645.134338 304.277130,648.513489 
	C332.934723,654.615662 361.852905,659.306091 390.922028,663.122925 
	C422.327759,667.246521 453.855682,669.916626 485.485779,670.656250 
	C515.454651,671.357117 545.438782,671.178650 575.402466,669.005310 
	C608.964111,666.570984 642.416809,663.398804 676.511292,657.920349 
M635.583069,427.931915 
	C658.265930,424.973022 681.045593,422.594543 703.177429,417.409149 
	C703.549805,414.678009 702.362427,413.156982 701.603516,411.546692 
	C692.652405,392.554932 682.738037,374.090210 671.882812,356.105042 
	C645.009033,311.579926 612.356689,271.838776 573.942749,236.803741 
	C571.659668,234.721481 569.343994,233.261917 566.013062,233.292938 
	C532.366943,233.606171 498.719757,233.818497 465.072571,234.005203 
	C462.260254,234.020813 460.039551,234.802902 457.899780,236.765671 
	C442.786560,250.628769 428.619263,265.411011 415.055237,280.768250 
	C390.154907,308.960510 368.983612,339.807037 350.442566,372.481384 
	C342.885223,385.799438 335.935455,399.440765 329.547119,413.366089 
	C328.063507,416.600098 328.578186,418.321899 332.378662,418.803436 
	C336.171112,419.283905 339.913544,420.147980 343.687866,420.784698 
	C374.723663,426.020020 405.958282,429.590302 437.304352,432.383331 
	C464.041840,434.765717 490.848572,435.367981 517.636719,435.366547 
	C532.420044,435.365723 547.258057,434.803192 562.069153,434.166504 
	C586.379395,433.121429 610.539185,430.744751 635.583069,427.931915 
M575.430298,826.895386 
	C581.348633,825.722229 587.297363,827.177429 593.302246,826.572815 
	C598.107910,826.088989 600.799072,832.559814 598.244019,836.748596 
	C596.513733,839.585266 595.046753,842.543640 592.680481,845.000793 
	C590.412781,847.355652 591.169373,849.256775 594.343689,849.968201 
	C597.103210,850.586609 600.208008,850.421936 602.631348,851.648315 
	C611.978760,856.378418 620.382996,853.315979 627.857483,848.112610 
	C635.950500,842.478699 643.427856,835.875916 650.720032,829.200073 
	C657.973999,822.559082 664.226074,814.894714 670.100220,807.013611 
	C702.819763,763.114319 725.146667,714.401733 737.291077,661.020752 
	C738.453186,655.912781 737.469360,654.865723 732.493958,655.836670 
	C706.019775,661.003052 679.511597,665.877319 652.783813,669.681702 
	C614.801147,675.088013 576.638611,677.909729 538.346130,678.953064 
	C506.357422,679.824707 474.398499,678.379822 442.449738,676.433777 
	C405.317352,674.172119 368.536774,669.400818 331.995941,662.593811 
	C321.686768,660.673401 311.421478,658.518250 301.130371,656.499695 
	C294.565857,655.212097 292.670105,657.260132 294.773315,663.685303 
	C295.758301,666.694397 296.614410,669.714844 297.447754,672.765564 
	C299.943359,681.901855 302.698730,690.967407 305.378815,700.052856 
	C305.980499,702.092712 307.092285,703.488586 309.459320,703.857910 
	C326.560974,706.526001 343.668945,709.164124 360.733978,712.053528 
	C375.139038,714.492554 389.862061,714.893372 403.966980,719.330078 
	C414.632721,722.685059 416.541290,727.362305 410.116425,736.234192 
	C407.046539,740.473206 407.155518,743.465515 411.083496,747.215271 
	C415.664459,751.588623 418.728607,756.892273 420.983521,762.653442 
	C423.470398,769.007324 425.312408,775.616455 427.861725,781.942566 
	C434.154022,797.556702 442.804352,810.785767 460.628357,815.419556 
	C467.845490,817.295776 474.995911,818.107544 482.346436,817.935913 
	C486.886383,817.830017 491.635590,817.676941 495.545746,819.965210 
	C503.222961,824.457947 511.444977,827.568909 519.633606,830.846069 
	C521.940125,831.769104 524.004028,833.051941 524.907532,835.779358 
	C526.918579,841.850220 529.451843,843.722839 535.818848,843.899109 
	C542.796021,844.092163 548.953064,842.249451 553.485840,836.429199 
	C555.690552,833.598389 558.802246,831.901306 562.190491,830.824036 
	C566.316040,829.512207 570.482727,828.329529 575.430298,826.895386 
M509.478241,486.338043 
	C513.135315,486.253021 516.791992,486.114594 520.449463,486.090973 
	C570.641724,485.766846 620.552795,481.783051 670.234863,474.717133 
	C686.382690,472.420532 702.495850,469.957092 718.478027,466.667297 
	C722.387939,465.862488 723.339600,464.100830 721.817383,460.365509 
	C717.860046,450.654816 713.994507,440.901154 710.379639,431.059113 
	C708.796631,426.749054 706.139160,425.659912 701.903015,426.418365 
	C681.259644,430.114502 660.515869,433.149933 639.716370,435.841644 
	C610.307312,439.647583 580.770142,442.161774 551.157410,442.978363 
	C522.696350,443.763184 494.202850,443.921875 465.725800,442.353149 
	C440.119507,440.942566 414.569794,438.980103 389.134033,435.752136 
	C368.989441,433.195618 348.878784,430.352051 328.911133,426.597504 
	C326.582520,426.159607 324.058594,425.701416 322.768219,428.405823 
	C317.114227,440.255524 312.998657,452.685944 308.584473,464.953339 
	C310.409119,466.344238 312.063965,466.510315 313.689484,466.845612 
	C328.203217,469.839569 342.838684,472.118439 357.491577,474.281586 
	C385.486298,478.414276 413.593506,481.715668 441.820648,483.568146 
	C464.069366,485.028229 486.344452,486.576385 509.478241,486.338043 
M516.500000,225.109650 
	C538.321228,224.996078 560.142883,224.931793 581.963440,224.741989 
	C589.495911,224.676468 591.948181,222.055023 592.046448,214.389389 
	C592.089539,211.028778 592.240662,207.215332 588.077515,206.185928 
	C581.802002,204.634216 575.722778,202.289490 569.109924,202.021255 
	C536.805725,200.710892 504.489441,201.085388 472.183899,201.509995 
	C462.748871,201.634018 453.168579,201.240509 443.827301,203.360947 
	C437.403687,204.819061 434.718109,211.467255 438.162781,217.155045 
	C441.204498,222.177444 445.193909,224.937408 451.535156,224.885880 
	C472.854736,224.712601 494.178101,225.001343 516.500000,225.109650 
M522.183350,172.144073 
	C515.491211,171.792496 508.916107,172.470383 502.401367,174.086029 
	C498.569977,175.036179 495.792023,177.220825 493.999298,180.585403 
	C491.444244,185.380661 493.372528,191.894089 497.513123,191.920944 
	C509.473022,191.998520 521.420532,193.348618 533.399902,192.203812 
	C537.216492,191.839096 538.531494,189.715729 538.807007,186.345169 
	C539.235657,181.102356 536.937134,176.963928 532.206177,174.533676 
	C529.347351,173.065125 526.224426,172.608612 522.183350,172.144073 
z"/>
<path fill="#000000" opacity="1.000000" stroke="none" 
	d="
M350.369873,674.461426 
	C361.643066,676.290710 372.491486,678.000427 383.325745,679.795593 
	C386.517639,680.324463 388.893890,681.374451 388.360870,685.635315 
	C387.939178,689.006042 391.160278,690.328491 393.660767,691.544373 
	C396.976532,693.156860 401.444855,694.434204 401.268036,698.480713 
	C401.107269,702.160095 396.265167,702.729675 393.474457,704.665039 
	C388.867157,707.860291 383.863373,706.627197 378.958221,706.023499 
	C363.752075,704.152039 348.697815,701.223938 333.534851,699.142029 
	C323.137421,697.714417 318.037476,690.330261 312.301300,683.335938 
	C310.643127,681.314148 311.365448,679.070190 312.730499,676.858582 
	C316.441223,670.846558 321.920441,669.939209 328.249084,670.968750 
	C335.472748,672.143982 342.708954,673.242554 350.369873,674.461426 
z"/>
<path fill="#000000" opacity="1.000000" stroke="none" 
	d="
M613.395264,819.650635 
	C608.254333,821.380371 603.530823,822.444336 598.353210,821.257263 
	C593.950439,820.247864 592.563171,817.837524 593.164917,813.737427 
	C593.406555,812.090515 593.772278,810.461914 594.017761,808.815430 
	C594.770996,803.763611 595.618164,798.763306 601.411926,796.857727 
	C608.079041,794.664917 614.252747,796.329468 620.077759,799.612427 
	C622.282837,800.855225 622.027466,802.884766 620.613281,804.763977 
	C618.950867,806.973267 617.798523,809.495605 618.263611,812.201477 
	C618.945618,816.169434 616.906372,818.094299 613.395264,819.650635 
z"/>
</svg>