<?xml version="1.0" encoding="UTF-8"?>
<svg version="1.1" xmlns="http://www.w3.org/2000/svg" width="590" height="704">
<path d="M0 0 C194.7 0 389.4 0 590 0 C590 232.32 590 464.64 590 704 C395.3 704 200.6 704 0 704 C0 471.68 0 239.36 0 0 Z " fill="#FEFEFE" transform="translate(0,0)"/>
<path d="M0 0 C2.31 0 4.62 0 7 0 C7 6.93 7 13.86 7 21 C13.93 21 20.86 21 28 21 C28 23.31 28 25.62 28 28 C21.07 28 14.14 28 7 28 C7.00511599 32.46881488 7.02835964 36.92999184 7.09765625 41.3972168 C7.11577747 42.91503074 7.12339174 44.43300916 7.12011719 45.95092773 C7.11724834 48.13914239 7.1526702 50.32397434 7.1953125 52.51171875 C7.20578613 53.82615967 7.21625977 55.14060059 7.22705078 56.49487305 C8.28155878 61.27679705 10.08818377 62.19882506 14 65 C15.21790847 67.43581694 15.1671306 69.09522156 15.1875 71.8125 C15.20167969 72.66457031 15.21585937 73.51664062 15.23046875 74.39453125 C15 77 15 77 13.81469727 79.3371582 C12.6982376 82.00126737 12.6982376 82.00126737 13.99121094 84.53271484 C14.85407715 85.85843506 14.85407715 85.85843506 15.734375 87.2109375 C16.36609619 88.2004541 16.99781738 89.1899707 17.64868164 90.20947266 C18.68883423 91.77640869 18.68883423 91.77640869 19.75 93.375 C20.79692017 94.99801025 20.79692017 94.99801025 21.86499023 96.65380859 C23.89034387 99.78264688 25.93947121 102.89424501 28 106 C28.48678223 106.73669922 28.97356445 107.47339844 29.47509766 108.23242188 C31.05040267 110.612125 32.6320741 112.98720183 34.22851562 115.3527832 C39.7183379 123.49684051 44.92208106 131.82731338 50.17675781 140.12402344 C52.56577781 143.89245616 54.96322551 147.65548873 57.36083984 151.41845703 C63.77605936 161.48784809 70.16295691 171.57483515 76.53222656 181.67333984 C78.51962044 184.8236831 80.50871982 187.97294753 82.49804688 191.12207031 C83.49183004 192.69545263 84.48532413 194.26901757 85.47851562 195.84277344 C88.0970382 199.99135499 90.72072979 204.13655593 93.3515625 208.27734375 C93.89941406 209.14101562 94.44726562 210.0046875 95.01171875 210.89453125 C96.06225518 212.55046155 97.11426413 214.20545888 98.16796875 215.859375 C98.64105469 216.60574219 99.11414063 217.35210937 99.6015625 218.12109375 C100.22538818 219.10227173 100.22538818 219.10227173 100.86181641 220.10327148 C101.42521729 221.0421521 101.42521729 221.0421521 102 222 C102.40009277 222.63687744 102.80018555 223.27375488 103.21240234 223.92993164 C104.29869256 226.7850633 103.85447658 228.04234024 103 231 C102.35111448 232.23089866 101.67166851 233.44589291 100.97218323 234.64875793 C92.77321822 248.94716424 92.74046432 262.15439395 92.90234375 278.32421875 C92.89667886 281.01001062 92.88748936 283.69556323 92.87367249 286.38130188 C92.84888176 292.67446049 92.86907171 298.9665925 92.90644604 305.25965577 C92.94681016 312.43780671 92.93547351 319.61560593 92.92032993 326.79382074 C92.89037321 341.52945393 92.92360043 356.26452388 93 371 C93.77085937 370.97679687 94.54171875 370.95359375 95.3359375 370.9296875 C96.33882813 370.91164063 97.34171875 370.89359375 98.375 370.875 C99.37273437 370.85179687 100.37046875 370.82859375 101.3984375 370.8046875 C104 371 104 371 106 373 C106 379.27 106 385.54 106 392 C142.63 392 179.26 392 217 392 C219.24980215 399.87430751 219.24980215 399.87430751 219.48657227 403.44726562 C219.54325577 404.2449939 219.59993927 405.04272217 219.65834045 405.86462402 C219.71050217 406.7033606 219.76266388 407.54209717 219.81640625 408.40625 C219.87779282 409.28978149 219.93917938 410.17331299 220.00242615 411.08361816 C220.19619117 413.88865063 220.37987114 416.69422243 220.5625 419.5 C220.75042634 422.30562684 220.94052422 425.11108303 221.13328552 427.91638184 C221.25225652 429.65583081 221.36820208 431.3954903 221.48060608 433.13537598 C221.79359967 437.79963113 222.31473569 442.37239971 223 447 C223.08793879 449.45711328 223.13024239 451.91631917 223.125 454.375 C223.12757813 455.59960938 223.13015625 456.82421875 223.1328125 458.0859375 C223 461 223 461 222 462 C219.66702567 462.04092937 217.33294775 462.04241723 215 462 C214.59489018 469.59664254 214.31869689 477.1891903 214.19947147 484.79552746 C214.14015839 488.33092173 214.03942832 491.85416388 213.83764648 495.38452148 C212.46736092 510.85776277 212.46736092 510.85776277 218.13668823 524.48614502 C223.61181575 528.7863023 229.72779032 531.43079484 236.197052 533.89834595 C239.81397295 535.3199191 242.96909316 537.1100732 246.30859375 539.09375 C248.35091091 540.2303383 250.39386586 541.36578141 252.4375 542.5 C253.54367676 543.11456055 254.64985352 543.72912109 255.78955078 544.36230469 C264.62679203 549.26168833 273.50103438 554.09092431 282.40014648 558.87695312 C283.32770752 559.37646484 284.25526855 559.87597656 285.2109375 560.390625 C286.01837402 560.82407227 286.82581055 561.25751953 287.65771484 561.70410156 C290.14206339 563.07859834 292.57360874 564.52596865 295 566 C294.49278998 570.47382469 292.91129062 572.39576158 289.99780273 575.73754883 C283.41092758 585.40940568 284.92335598 596.93529559 285.03515625 608.19921875 C285.03017086 610.64590946 285.02152236 613.09259519 285.00938416 615.53926086 C284.98670622 621.94571673 285.01060978 628.35113863 285.04541016 634.75750732 C285.07939976 642.57378121 285.0594265 650.39006935 285.04637051 658.20637989 C285.03707457 664.27881404 285.03623266 670.35086215 285.06056213 676.42326355 C285.0634877 677.53297516 285.06641327 678.64268677 285.06942749 679.786026 C285.07525391 681.86674495 285.08492524 683.9474578 285.09901428 686.02813721 C285.10078674 686.9377269 285.1025592 687.84731659 285.10438538 688.7844696 C285.10832337 689.57913981 285.11226137 690.37381002 285.1163187 691.19256115 C285 693 285 693 284 694 C281.02670594 694.10001049 278.07657572 694.13358779 275.1027832 694.12584114 C274.15306294 694.12729458 273.20334269 694.12874802 272.22484303 694.13024551 C269.0001402 694.13393342 265.77548383 694.13040626 262.55078125 694.12698364 C260.23249283 694.12813436 257.9142046 694.12972155 255.59591675 694.13171089 C249.86559294 694.13546945 244.13528298 694.13452943 238.40495896 694.13166012 C231.5455973 694.12848283 224.68624101 694.13107998 217.82687962 694.13387203 C204.38593638 694.13914905 190.94499788 694.13867691 177.50405419 694.13579312 C165.7419601 694.13328179 153.97986774 694.13261889 142.21777344 694.13381577 C141.0494039 694.13393034 141.0494039 694.13393034 139.85743093 694.13404724 C136.6959091 694.13435855 133.53438727 694.13467695 130.37286544 694.135007 C100.68946865 694.13806894 71.00607489 694.13528788 41.32267857 694.1299101 C14.92605492 694.12516417 -11.4705639 694.12558879 -37.8671875 694.13037109 C-67.49481277 694.13572077 -97.12243535 694.13785183 -126.75006104 694.13475883 C-129.90596517 694.13443809 -133.0618693 694.13412525 -136.21777344 694.13381577 C-136.99489008 694.13373669 -137.77200673 694.13365761 -138.57267237 694.13357614 C-150.3300245 694.13243661 -162.0873747 694.13377275 -173.84472656 694.13629532 C-187.20763127 694.13914799 -200.57053047 694.13845386 -213.93343449 694.13301457 C-220.75871641 694.13032836 -227.58398938 694.12924615 -234.40927124 694.13266373 C-240.64644933 694.13562404 -246.88360842 694.13403834 -253.12078476 694.12868617 C-255.38791764 694.12756085 -257.6550521 694.12815569 -259.92218399 694.13056196 C-262.9824072 694.13356307 -266.04256361 694.13052447 -269.1027832 694.12584114 C-270.00151248 694.12818231 -270.90024176 694.13052347 -271.82620525 694.13293558 C-277.88584966 694.11415034 -277.88584966 694.11415034 -279 693 C-279.08810438 691.59945711 -279.1069189 690.19447952 -279.09765625 688.79119873 C-279.09282982 687.42898193 -279.09282982 687.42898193 -279.08790588 686.03924561 C-279.07952194 685.03468323 -279.071138 684.03012085 -279.0625 682.99511719 C-279.05304917 680.81305041 -279.04386607 678.63098245 -279.03491211 676.44891357 C-279.02861786 675.28439415 -279.02232361 674.11987473 -279.01583862 672.92006683 C-278.98891812 666.76181977 -278.99874713 660.60360193 -279.00390625 654.4453125 C-279.01010354 646.60419554 -279.00500696 638.76379735 -278.94873047 630.92285156 C-278.90427437 624.59297918 -278.90402729 618.26443289 -278.93286133 611.93448639 C-278.93592992 609.52811665 -278.92315983 607.12166956 -278.89379883 604.71547699 C-278.52840892 587.10766547 -278.52840892 587.10766547 -287.16625977 572.44268799 C-289 570 -289 570 -288.9430542 567.29414368 C-287.5225237 563.8384557 -284.83823536 562.78250387 -281.640625 561.21484375 C-280.98873199 560.8771698 -280.33683899 560.53949585 -279.66519165 560.19158936 C-278.26393011 559.46801409 -276.8585702 558.75233183 -275.449646 558.04379272 C-272.48984298 556.55518567 -269.54980438 555.02944267 -266.60848999 553.50471497 C-265.13503453 552.74110983 -263.66060576 551.9793799 -262.18521118 551.2195282 C-256.32426561 548.19518964 -250.57506622 545.00570873 -244.875 541.6875 C-236.66434045 536.92433317 -228.36759188 532.34073704 -220.01513672 527.83081055 C-219.14131348 527.35812744 -218.26749023 526.88544434 -217.3671875 526.3984375 C-216.20872314 525.77461182 -216.20872314 525.77461182 -215.02685547 525.13818359 C-213.30450569 524.17099561 -211.64357659 523.09571773 -210 522 C-209.56069949 519.41572337 -209.56069949 519.41572337 -209.65942383 516.35693359 C-209.65965042 515.17586029 -209.65987701 513.99478699 -209.66011047 512.77792358 C-209.67559433 511.49769318 -209.69107819 510.21746277 -209.70703125 508.8984375 C-209.71127609 507.59170074 -209.71552094 506.28496399 -209.71989441 504.93862915 C-209.73135368 501.46308214 -209.76082951 497.98791073 -209.79400635 494.51251221 C-209.82468431 490.9667265 -209.83839484 487.42088015 -209.85351562 483.875 C-209.88569865 476.91651229 -209.93690771 469.95827417 -210 463 C-211.134375 462.690625 -212.26875 462.38125 -213.4375 462.0625 C-217 461 -217 461 -218 460 C-217.92999988 447.78497826 -216.3301296 435.53693212 -215.10449219 423.39404297 C-214.35920456 415.96852535 -213.74422498 408.56394291 -213.36132812 401.11010742 C-213 398 -213 398 -211 392 C-174.37 392 -137.74 392 -100 392 C-100 385.73 -100 379.46 -100 373 C-98 371 -98 371 -95.3984375 370.8046875 C-93.90183594 370.83949219 -93.90183594 370.83949219 -92.375 370.875 C-91.37210938 370.89304687 -90.36921875 370.91109375 -89.3359375 370.9296875 C-88.17964844 370.96449219 -88.17964844 370.96449219 -87 371 C-86.94341867 355.66467991 -86.93329524 340.32979836 -86.97665405 324.99444771 C-86.9957396 317.87191225 -87.00031335 310.74994932 -86.96923828 303.62744141 C-86.94215283 297.41055403 -86.94380836 291.19440889 -86.97825909 284.97754753 C-86.99550002 281.69337391 -86.99522592 278.41080484 -86.96896362 275.12665176 C-86.85208057 259.18678974 -88.02410322 246.96075019 -96 233 C-98.13068578 229.10524085 -98.26852893 227.39267457 -97 223 C-95.48285729 220.07984266 -93.69221545 217.36586539 -91.875 214.625 C-90.77510288 212.92638877 -89.67619078 211.22713942 -88.578125 209.52734375 C-87.99482422 208.62999512 -87.41152344 207.73264648 -86.81054688 206.80810547 C-83.69141059 201.97041594 -80.66416296 197.07566144 -77.625 192.1875 C-70.48664749 180.7466785 -63.26091848 169.36331809 -56 158 C-55.35385742 156.98760254 -54.70771484 155.97520508 -54.04199219 154.93212891 C-45.58635362 141.68414366 -37.07961726 128.47138969 -28.49951172 115.30371094 C-27.01928224 113.02962344 -25.54200655 110.75365615 -24.06640625 108.4765625 C-23.59589844 107.75057861 -23.12539063 107.02459473 -22.640625 106.27661133 C-21.72772821 104.86415356 -20.81748186 103.44997853 -19.91015625 102.03393555 C-17.74559619 98.66026576 -15.54581662 95.3263031 -13.24609375 92.04296875 C-12.81458008 91.41310059 -12.38306641 90.78323242 -11.93847656 90.13427734 C-10.76834272 88.43022997 -9.57823687 86.73994531 -8.38671875 85.05078125 C-6.64974914 82.05769268 -6.64974914 82.05769268 -7.7421875 78.88671875 C-8.15726562 77.93410156 -8.57234375 76.98148437 -9 76 C-9.60300686 72.19153561 -9.84337789 68.61283421 -8.01953125 65.125 C-5.49792145 61.89733946 -4.02813908 61.00703477 0 60 C0 49.44 0 38.88 0 28 C-7.26 28 -14.52 28 -22 28 C-22 25.69 -22 23.38 -22 21 C-14.74 21 -7.48 21 0 21 C0 14.07 0 7.14 0 0 Z " fill="#292520" transform="translate(294,7)"/>
<path d="M0 0 C2.95109066 1.44738607 5.5405613 3.30445124 8.171875 5.25390625 C8.77515625 5.69283203 9.3784375 6.13175781 10 6.58398438 C11.31717135 7.54253316 12.6325257 8.50358248 13.94628906 9.46679688 C17.63295412 12.16452389 21.34196191 14.8313292 25.046875 17.50390625 C26.58855309 18.61847378 28.13021988 19.73305694 29.671875 20.84765625 C33.45432886 23.57942848 37.24722186 26.29612658 41.046875 29.00390625 C47.84672603 33.85092383 54.61643622 38.73920844 61.3828125 43.6328125 C64.51020773 45.8945542 67.64056103 48.15210717 70.7734375 50.40625 C71.55235352 50.96723389 72.33126953 51.52821777 73.13378906 52.10620117 C74.5908211 53.15544458 76.04844002 54.20387385 77.50683594 55.2512207 C78.90605063 56.25957573 80.29092487 57.2880762 81.66210938 58.33422852 C84.10573 60.12300214 84.10573 60.12300214 87.22851562 61.65600586 C95.27868719 66.32997346 95.27868719 66.32997346 96.6630249 71.14862061 C97.54947943 77.44376705 97.13943619 83.74248965 96.796875 90.06640625 C96.73661221 92.00048537 96.68187148 93.93474489 96.6328125 95.86914062 C96.50124209 100.5852176 96.29465647 105.29256388 96.046875 110.00390625 C95.52738281 109.59398437 95.00789062 109.1840625 94.47265625 108.76171875 C85.9590998 102.18377679 79.82849382 101.24601468 69.046875 102.00390625 C61.32609541 103.36059276 56.58973153 108.44390711 52.171875 114.62890625 C49.95352021 119.3120997 49.91528054 123.89786833 49.88865662 129.02107239 C49.88371864 129.71546486 49.87878066 130.40985733 49.87369305 131.125292 C49.85837077 133.4452607 49.84997178 135.76520184 49.84155273 138.08520508 C49.83197006 139.7509485 49.82195975 141.4166895 49.81155396 143.08242798 C49.78454099 147.60056739 49.7635119 152.11871722 49.74355197 156.63689256 C49.72167016 161.36013573 49.69429221 166.08334695 49.66749573 170.80656433 C49.61759853 179.74891207 49.57264867 188.69127757 49.52947336 197.63366002 C49.48007558 207.81498182 49.42516687 217.99627157 49.36979377 228.17756236 C49.25601937 249.11964711 49.14917044 270.06176248 49.046875 291.00390625 C45.416875 291.00390625 41.786875 291.00390625 38.046875 291.00390625 C38.04140656 289.668722 38.04140656 289.668722 38.03582764 288.30656433 C37.99780572 279.87742112 37.94079314 271.44865925 37.86297226 263.01978588 C37.82362867 258.68741124 37.79137642 254.35523585 37.77587891 250.02270508 C37.76062514 245.83381958 37.72602755 241.64548238 37.67856598 237.45684242 C37.66384138 235.86669012 37.65583916 234.27645949 37.65499115 232.68623924 C37.64138279 219.95165035 36.20847072 208.6134022 27.046875 199.00390625 C24.2071714 196.38923576 21.25986037 194.14048743 18.046875 192.00390625 C17.40492188 191.56691406 16.76296875 191.12992188 16.1015625 190.6796875 C8.01783408 186.16230985 -3.19599699 186.76605048 -12.0234375 188.6640625 C-22.72752799 192.53968147 -29.82396326 200.01553865 -34.953125 210.00390625 C-36.77905526 214.60720356 -37.25660785 218.76035562 -37.27197266 223.66162109 C-37.28704109 224.77484238 -37.28704109 224.77484238 -37.30241394 225.91055298 C-37.33311988 228.34530923 -37.35024568 230.77995616 -37.3671875 233.21484375 C-37.38590931 234.9102166 -37.40548347 236.60558023 -37.4258728 238.30093384 C-37.47709308 242.74943597 -37.51677272 247.19796827 -37.55401611 251.64660645 C-37.59411927 256.19156294 -37.64518276 260.736395 -37.6953125 265.28125 C-37.79195207 274.18871454 -37.87639499 283.09624951 -37.953125 292.00390625 C-41.913125 292.00390625 -45.873125 292.00390625 -49.953125 292.00390625 C-49.95459156 291.11968491 -49.95605812 290.23546356 -49.95756912 289.32444763 C-49.99463719 267.79927223 -50.053652 246.27425428 -50.13702774 224.74920654 C-50.17681981 214.33980046 -50.20921148 203.93047 -50.22412109 193.52099609 C-50.23713671 184.44701586 -50.26409915 175.37320199 -50.30773807 166.29931545 C-50.33035483 161.49570834 -50.34603555 156.69230644 -50.34500885 151.88864136 C-50.34426237 147.36430968 -50.36220838 142.8404317 -50.39429283 138.31621742 C-50.40278916 136.65866478 -50.40454356 135.00106123 -50.39892769 133.34349632 C-50.3457961 120.07302159 -50.3457961 120.07302159 -56.91796875 108.76171875 C-57.56894531 108.22289062 -58.21992188 107.6840625 -58.890625 107.12890625 C-59.53902344 106.57460938 -60.18742187 106.0203125 -60.85546875 105.44921875 C-67.18455102 101.08839857 -73.74142344 101.42378866 -81.12890625 102.24609375 C-85.24633704 103.05472745 -88.2392128 104.72447643 -91.6953125 107.08984375 C-92.49565918 107.63431152 -93.29600586 108.1787793 -94.12060547 108.73974609 C-95.02770264 109.36550537 -95.02770264 109.36550537 -95.953125 110.00390625 C-96.37716454 104.24310844 -96.68332409 98.49155059 -96.88696289 92.71875 C-96.97187513 90.76206265 -97.0874828 88.80643601 -97.2355957 86.85351562 C-98.3972432 71.12906917 -98.3972432 71.12906917 -94.38577271 65.99981689 C-90.36767407 62.33043803 -85.80494596 59.68927148 -81.02236938 57.13842773 C-78.37532302 55.68711005 -76.01766883 53.96182148 -73.62890625 52.12109375 C-72.53340454 51.30886353 -72.53340454 51.30886353 -71.41577148 50.48022461 C-70.70622314 49.95178955 -69.9966748 49.42335449 -69.265625 48.87890625 C-63.29013604 44.45331543 -57.29116022 40.06828958 -51.22973633 35.76123047 C-45.67662511 31.81481622 -40.15736823 27.82219295 -34.63793945 23.82885742 C-31.13837341 21.29863194 -27.63611526 18.77278106 -24.1171875 16.26953125 C-23.52341309 15.84712158 -22.92963867 15.42471191 -22.31787109 14.98950195 C-21.17339973 14.17667996 -20.02791817 13.36527815 -18.88134766 12.55541992 C-16.05545612 10.54907843 -13.28325939 8.49882849 -10.5625 6.3515625 C-10.01770996 5.92584961 -9.47291992 5.50013672 -8.91162109 5.06152344 C-7.42501025 3.89258799 -5.95033803 2.70851453 -4.4765625 1.5234375 C-1.953125 0.00390625 -1.953125 0.00390625 0 0 Z " fill="#DECBAE" transform="translate(296.953125,402.99609375)"/>
<path d="M0 0 C3.32722323 1.33088929 6.03903553 2.4933967 9.0625 4.2578125 C9.84415527 4.71019287 10.62581055 5.16257324 11.43115234 5.62866211 C12.27887207 6.12245361 13.1265918 6.61624512 14 7.125 C22.73527616 12.16709277 31.53529248 17.08191054 40.375 21.9375 C49.22007951 26.7977616 58.0395197 31.69777695 66.8125 36.6875 C75.64646375 41.70900077 84.55489485 46.57959333 93.49975586 51.40039062 C100.42777892 55.13721049 107.30685419 58.94955147 114.15625 62.828125 C118.38280929 65.22142514 122.62796897 67.58076865 126.875 69.9375 C127.99998901 70.56241333 127.99998901 70.56241333 129.14770508 71.19995117 C132.94287743 73.30720527 136.74082824 75.40925016 140.54296875 77.50390625 C148.26981236 81.7672794 155.95229492 86.09359025 163.5625 90.5625 C164.2954126 90.99240234 165.0283252 91.42230469 165.78344727 91.86523438 C170.87151338 94.87151338 170.87151338 94.87151338 172 96 C172.09535213 97.36608326 172.1218867 98.73705455 172.12025452 100.10646057 C172.12231651 101.43375183 172.12231651 101.43375183 172.12442017 102.78785706 C172.12082489 103.76608932 172.11722961 104.74432159 172.11352539 105.75219727 C172.11367142 106.7764682 172.11381744 107.80073914 172.1139679 108.85604858 C172.11326828 112.25952229 172.10547363 115.66294204 172.09765625 119.06640625 C172.09579224 121.41910268 172.09436826 123.7717995 172.09336853 126.12449646 C172.08954199 132.33056705 172.07971055 138.5366144 172.06866455 144.74267578 C172.05845334 151.06998378 172.05387154 157.39729552 172.04882812 163.72460938 C172.0380884 176.14974982 172.02101036 188.57487298 172 201 C167.38 201 162.76 201 158 201 C158 177.9 158 154.8 158 131 C155.69 131 153.38 131 151 131 C151 154.1 151 177.2 151 201 C128.56 201 106.12 201 83 201 C82.97421875 193.47574219 82.9484375 185.95148438 82.921875 178.19921875 C82.8966941 173.41858621 82.87035147 168.63801615 82.83984375 163.85742188 C82.7915825 156.27758587 82.74750988 148.69789459 82.72900391 141.11791992 C82.71380583 135.00341096 82.67930357 128.88928183 82.63169098 122.7749424 C82.6169098 120.44792809 82.60896087 118.12085955 82.60811615 115.79379845 C82.60573499 112.52187477 82.57856161 109.25099106 82.54589844 105.97924805 C82.5509288 105.0276178 82.55595917 104.07598755 82.56114197 103.09552002 C82.3829322 91.47744286 78.09936706 82.41485156 70.1875 74.09375 C62.73151749 66.99854084 54.48301994 64.77536486 44.46875 63.39453125 C42 63 42 63 40 62 C39.54625 60.88625 39.0925 59.7725 38.625 58.625 C36.76330429 54.32330733 36.76330429 54.32330733 33 52 C28.212179 51.46801989 26.13597455 51.27490986 22.0625 53.875 C19.96116416 55.82597612 19.96116416 55.82597612 19 58 C12.73 58 6.46 58 0 58 C0 38.86 0 19.72 0 0 Z " fill="#EEE5D1" transform="translate(400,494)"/>
<path d="M0 0 C0 19.14 0 38.28 0 58 C-6.27 58 -12.54 58 -19 58 C-19.33 57.01 -19.66 56.02 -20 55 C-23.5454447 52.09918161 -26.61629128 51.45905604 -31.0703125 51.65234375 C-34.28574106 52.23164161 -35.85344417 53.60090819 -38 56 C-38.23976562 57.00546875 -38.47953125 58.0109375 -38.7265625 59.046875 C-39.35691406 60.50867188 -39.35691406 60.50867188 -40 62 C-42.90625 63.1015625 -42.90625 63.1015625 -46.5 63.625 C-60.12678399 66.07225916 -69.40621817 71.0575999 -77.5 82.6875 C-81.88212761 89.45177256 -82.30170637 95.75289457 -82.31884766 103.59521484 C-82.32889328 104.64947662 -82.3389389 105.7037384 -82.34928894 106.78994751 C-82.38010125 110.26360546 -82.39715089 113.73718639 -82.4140625 117.2109375 C-82.43277569 119.62375551 -82.45234921 122.03656699 -82.4727478 124.44937134 C-82.5240589 130.79176989 -82.56369027 137.13418965 -82.60089111 143.47668457 C-82.64798112 151.09096036 -82.70957469 158.70513097 -82.76873779 166.31932068 C-82.85693757 177.87950464 -82.92671128 189.43966856 -83 201 C-105.44 201 -127.88 201 -151 201 C-151 177.9 -151 154.8 -151 131 C-153.64 131 -156.28 131 -159 131 C-159 153.77 -159 176.54 -159 200 C-163.29 200 -167.58 200 -172 200 C-172 165.35 -172 130.7 -172 95 C-157.33286826 86.61878186 -142.6360863 78.30505267 -127.78979492 70.24462891 C-121.129431 66.62589723 -114.51283473 62.9365527 -107.9140625 59.20703125 C-103.66237297 56.80507474 -99.39478395 54.43210632 -95.125 52.0625 C-94.37589355 51.64669678 -93.62678711 51.23089355 -92.85498047 50.80249023 C-89.80661441 49.11095106 -86.75778922 47.42024032 -83.70898438 45.72949219 C-76.02278995 41.46631262 -68.34022288 37.19802081 -60.6875 32.875 C-55.57175775 29.98576755 -50.43655046 27.13304266 -45.2890625 24.30078125 C-44.68617401 23.96900879 -44.08328552 23.63723633 -43.46212769 23.29541016 C-40.94877523 21.91253231 -38.43534039 20.52980593 -35.92132568 19.14813232 C-26.60624387 14.0266605 -17.34557738 8.82137056 -8.16918945 3.45385742 C-7.37730225 2.99470947 -6.58541504 2.53556152 -5.76953125 2.0625 C-5.08479736 1.66160156 -4.40006348 1.26070313 -3.69458008 0.84765625 C-2 0 -2 0 0 0 Z " fill="#EFE5D2" transform="translate(194,494)"/>
<path d="M0 0 C5.61 0 11.22 0 17 0 C17 8.25 17 16.5 17 25 C24.92 25 32.84 25 41 25 C41 18.4 41 11.8 41 5 C53.4406945 6.55508681 62.80647564 9.12448267 70.875 19.3125 C75.58206906 26.80672894 76.44131399 34.93068883 76.34057617 43.59033203 C76.34123329 45.09944908 76.34123329 45.09944908 76.34190369 46.63905334 C76.33983164 49.92884464 76.31657568 53.21811142 76.29296875 56.5078125 C76.28736716 58.80280275 76.28309972 61.09779661 76.28010559 63.39279175 C76.2687012 69.40647443 76.23927205 75.4199366 76.20599365 81.43353271 C76.16977433 88.66317183 76.15611065 95.89288506 76.13863373 103.12258911 C76.10963208 114.08187901 76.05211368 125.04068593 76 136 C50.92 136 25.84 136 0 136 C0 91.12 0 46.24 0 0 Z " fill="#C4A781" transform="translate(400,559)"/>
<path d="M0 0 C5.61 0 11.22 0 17 0 C17 44.55 17 89.1 17 135 C-8.08 135 -33.16 135 -59 135 C-59.12032643 109.40612311 -59.12032643 109.40612311 -59.14648438 98.47070312 C-59.16439638 91.0179196 -59.18555443 83.56524697 -59.22631836 76.11254883 C-59.2589875 70.10196151 -59.27686906 64.09149317 -59.28463173 58.0808239 C-59.29016165 55.79117905 -59.30096018 53.50154049 -59.31719017 51.21194649 C-59.3390645 47.99735725 -59.3419627 44.78325557 -59.34057617 41.56860352 C-59.351362 40.62848419 -59.36214783 39.68836487 -59.3732605 38.71975708 C-59.33303844 30.064354 -57.68565228 23.00629529 -51.5625 16.625 C-50.80066406 15.81289063 -50.03882812 15.00078125 -49.25390625 14.1640625 C-45.02343321 10.10222184 -41.133164 8.11493381 -35.5625 6.3125 C-34.90701172 6.08755859 -34.25152344 5.86261719 -33.57617188 5.63085938 C-29.75508047 4.36993754 -27.11536232 4 -23 4 C-23 10.93 -23 17.86 -23 25 C-15.74 24.67 -8.48 24.34 -1 24 C-0.67 16.08 -0.34 8.16 0 0 Z " fill="#C4A781" transform="translate(177,559)"/>
<path d="M0 0 C6.33532872 3.62934823 9.78324855 8.48364123 11.75 15.4375 C11.99609566 18.78388786 11.99609566 18.78388786 11.99050903 22.49899292 C11.99221788 23.18607271 11.99392673 23.87315251 11.99568737 24.5810529 C11.99896686 26.87038677 11.98800427 29.15942386 11.97705078 31.44873047 C11.97648633 33.09491468 11.97680388 34.7410994 11.97793579 36.38728333 C11.97850899 40.84757386 11.96675991 45.30775656 11.95278788 49.76802206 C11.94027514 54.43251084 11.93910959 59.09700216 11.93673706 63.76150513 C11.93052389 72.59052977 11.91411527 81.41950481 11.89403808 90.24850762 C11.87167402 100.30165288 11.86068437 110.35480052 11.85064721 120.40796447 C11.82974891 141.08451014 11.79307469 161.76098782 11.75 182.4375 C-1.12 182.4375 -13.99 182.4375 -27.25 182.4375 C-27.31771574 160.24549075 -27.37298109 138.05356512 -27.40543652 115.86147881 C-27.42090655 105.5573545 -27.44199872 95.25329894 -27.47631836 84.94921875 C-27.50621649 75.96836747 -27.52557401 66.98756597 -27.53226548 58.0066663 C-27.53617703 53.2511759 -27.54537262 48.49582792 -27.56719017 43.74038315 C-27.58756181 39.26380005 -27.59383241 34.78741797 -27.58932304 30.31079292 C-27.59014794 28.6684936 -27.59610959 27.02618752 -27.60761642 25.3839283 C-27.62257146 23.13932228 -27.61894307 20.89547239 -27.61076355 18.65084839 C-27.61352893 17.39536634 -27.61629431 16.1398843 -27.61914349 14.84635735 C-27.03380015 9.44100145 -24.95170368 5.54349137 -20.75 2.125 C-20.1621875 1.63386719 -19.574375 1.14273438 -18.96875 0.63671875 C-13.62591723 -3.09112139 -5.73960398 -2.58779832 0 0 Z " fill="#E0CDAF" transform="translate(381.25,512.5625)"/>
<path d="M0 0 C4.11601204 2.93525707 7.00594889 5.95534666 8.625 10.8125 C8.71740293 13.09517717 8.74692818 15.38053881 8.74525452 17.66508484 C8.74610894 18.36593557 8.74696337 19.0667863 8.74784368 19.78887492 C8.74949383 22.14272303 8.7439847 24.49650023 8.73852539 26.8503418 C8.73824339 28.53549193 8.7384015 30.22064218 8.7389679 31.90579224 C8.73925538 36.48605774 8.73336656 41.06629718 8.72639394 45.64655662 C8.72015225 50.43118391 8.71955595 55.21581177 8.71836853 60.0004425 C8.71525763 69.06329441 8.70704747 78.12613428 8.69701904 87.18898088 C8.68585045 97.50566026 8.68034557 107.82234022 8.67532361 118.13902414 C8.66486467 139.3635243 8.64652216 160.58800797 8.625 181.8125 C-4.245 181.8125 -17.115 181.8125 -30.375 181.8125 C-30.42015737 160.4200655 -30.45699533 139.02766962 -30.47862434 117.63519955 C-30.48893426 107.70217621 -30.50298919 97.76918461 -30.52587891 87.83618164 C-30.54582145 79.17797323 -30.55871851 70.5197878 -30.56317699 61.86155707 C-30.5657829 57.27765499 -30.57190206 52.69381866 -30.58646011 48.10993767 C-30.60005764 43.79343132 -30.60421824 39.47701767 -30.60121536 35.16049194 C-30.60176455 33.57828327 -30.60572906 31.99607142 -30.61341095 30.4138813 C-30.6234063 28.24858129 -30.62095235 26.08362825 -30.61550903 23.9183197 C-30.61735262 22.70800551 -30.61919621 21.49769133 -30.62109566 20.25070095 C-29.98275914 11.33250526 -26.76505596 5.75286178 -20.19140625 0.046875 C-14.45163644 -3.85369975 -5.78565835 -3.45622662 0 0 Z " fill="#DFCCAE" transform="translate(231.375,513.1875)"/>
<path d="M0 0 C55.11 0 110.22 0 167 0 C167 38.61 167 77.22 167 117 C141.26 117 115.52 117 89 117 C89 116.67 89 116.34 89 116 C104.18 116 119.36 116 135 116 C135 78.05 135 40.1 135 1 C90.78 1 46.56 1 1 1 C1 39.28 1 77.56 1 117 C0.67 117 0.34 117 0 117 C0 78.39 0 39.78 0 0 Z " fill="#BAA07F" transform="translate(213,261)"/>
<path d="M0 0 C2.4333181 3.64997716 2.24703406 5.35180168 2.24050903 9.70072937 C2.24221788 10.38524589 2.24392673 11.06976241 2.24568737 11.77502185 C2.2489873 14.07367177 2.23797048 16.37203117 2.22705078 18.6706543 C2.22648678 20.31639601 2.22680302 21.96213822 2.22793579 23.60787964 C2.22851072 28.08074373 2.21673376 32.55350102 2.20278788 37.02634025 C2.19030385 41.69885453 2.18911186 46.37137114 2.18673706 51.04389954 C2.18051544 59.89427352 2.1640954 68.74459823 2.14403808 77.5949505 C2.12170029 87.66979124 2.11069099 97.74463432 2.10064721 107.81949365 C2.07972976 128.54636274 2.04304501 149.27316424 2 170 C-10.87 170 -23.74 170 -37 170 C-37 114.89 -37 59.78 -37 3 C-28 3 -28 3 -24.5 5.375 C-20.82497259 9.23377878 -20.8756201 11.0375303 -20.87974548 16.27676392 C-20.87889106 16.92775759 -20.87803663 17.57875127 -20.87715632 18.24947202 C-20.87550333 20.44059358 -20.88101992 22.63163934 -20.88647461 24.82275391 C-20.88675655 26.38953144 -20.88659862 27.9563091 -20.8860321 29.52308655 C-20.88574438 33.78524038 -20.89163703 38.04736625 -20.89860606 42.30951357 C-20.9048438 46.76048931 -20.90544373 51.21146563 -20.90663147 55.66244507 C-20.90974354 64.09492648 -20.91795527 72.52739498 -20.92798096 80.9598707 C-20.93914594 90.55828166 -20.94465352 100.15669323 -20.94967639 109.75510907 C-20.96013797 129.50341346 -20.9779357 149.25170546 -21 169 C-13.74 169 -6.48 169 1 169 C0.67 113.23 0.34 57.46 0 0 Z " fill="#C2A681" transform="translate(391,525)"/>
<path d="M0 0 C60.72 0 121.44 0 184 0 C182.69322487 3.26693784 181.37007608 6.47918322 179.9375 9.6875 C179.59589844 10.45449219 179.25429688 11.22148437 178.90234375 12.01171875 C178.29364155 13.35297164 177.65870747 14.68258505 177 16 C120.9 16 64.8 16 7 16 C6.67 14.35 6.34 12.7 6 11 C5.34 11 4.68 11 4 11 C3.52014033 9.72942818 3.0411407 8.45853152 2.5625 7.1875 C2.16224609 6.12595703 2.16224609 6.12595703 1.75390625 5.04296875 C1.13774814 3.37327604 0.56280765 1.68842296 0 0 Z " fill="#E1BD6C" transform="translate(205,238)"/>
<path d="M0 0 C32.67 0 65.34 0 99 0 C99 0.66 99 1.32 99 2 C97.7625 2.60134766 97.7625 2.60134766 96.5 3.21484375 C88.78159505 7.01374619 81.2499969 11.04464188 73.7734375 15.296875 C67.85399992 18.66106729 61.89299563 21.95022047 55.9375 25.25 C47.20934497 30.09008681 38.49814547 34.95889985 29.8125 39.875 C28.87623779 40.40480469 27.93997559 40.93460937 26.9753418 41.48046875 C23.48464695 43.45692958 19.99464442 45.43458216 16.50732422 47.41699219 C14.2560457 48.69672448 12.00314412 49.97355629 9.75 51.25 C9.1000708 51.62108887 8.4501416 51.99217773 7.78051758 52.37451172 C5.20233078 53.83304284 2.8195111 55.06016297 0 56 C0 37.52 0 19.04 0 0 Z " fill="#EAE1CD" transform="translate(91,469)"/>
<path d="M0 0 C32.01 0 64.02 0 97 0 C97 17.82 97 35.64 97 54 C92.87480259 52.6249342 89.72180036 51.46568817 86.0078125 49.453125 C85.06752197 48.94491211 84.12723145 48.43669922 83.15844727 47.91308594 C82.15740967 47.36426758 81.15637207 46.81544922 80.125 46.25 C79.0743335 45.67797852 78.02366699 45.10595703 76.94116211 44.51660156 C68.37353493 39.82190653 59.93847821 34.91612234 51.52099609 29.95874023 C44.52343361 25.85027494 37.44160698 21.9740068 30.24609375 18.2265625 C25.23238923 15.61248765 20.27066726 12.90511314 15.3125 10.1875 C14.05518066 9.50264526 14.05518066 9.50264526 12.77246094 8.80395508 C8.37169037 6.38638544 4.07985723 3.93301529 0 1 C0 0.67 0 0.34 0 0 Z " fill="#EEE5D2" transform="translate(405,470)"/>
<path d="M0 0 C0.33 0 0.66 0 1 0 C1 56.43 1 112.86 1 171 C-11.87 171 -24.74 171 -38 171 C-38 170.67 -38 170.34 -38 170 C-30.41 170 -22.82 170 -15 170 C-15.01332367 168.02358017 -15.02664734 166.04716034 -15.04037476 164.010849 C-15.16298462 145.3971887 -15.25227527 126.78358166 -15.31087303 108.16960812 C-15.34180102 98.59964485 -15.38396125 89.02997805 -15.45263672 79.46020508 C-15.51247121 71.11842114 -15.55115684 62.77685191 -15.56453097 54.43485934 C-15.57234795 50.01838985 -15.59069698 45.6025346 -15.63438034 41.18626213 C-15.67518577 37.02714101 -15.68765333 32.86888557 -15.67864609 28.70958328 C-15.68029322 27.1853839 -15.69218191 25.66115479 -15.71523285 24.13712883 C-15.90134395 11.19459043 -15.90134395 11.19459043 -12.08242798 6.6006012 C-8.16770935 2.89599624 -5.36132517 2.9007162 0 3 C0 2.01 0 1.02 0 0 Z " fill="#C4A782" transform="translate(239,524)"/>
<path d="M0 0 C2.88003366 1.35349565 5.36624164 2.89784064 7.9140625 4.80078125 C8.6656665 5.35902588 9.41727051 5.91727051 10.19165039 6.49243164 C10.99465576 7.0930542 11.79766113 7.69367676 12.625 8.3125 C14.34452382 9.58925344 16.06458862 10.86527857 17.78515625 12.140625 C18.65672363 12.78708984 19.52829102 13.43355469 20.42626953 14.09960938 C24.28482002 16.94868517 28.17073629 19.75903807 32.0625 22.5625 C32.80000488 23.09399658 33.53750977 23.62549316 34.29736328 24.1730957 C35.78676024 25.24602699 37.27634301 26.3187004 38.76611328 27.39111328 C43.26011909 30.62777976 47.74808801 33.87281357 52.23706055 37.11645508 C56.05931119 39.87782595 59.88340812 42.63657453 63.7109375 45.390625 C71.18664372 50.77300892 78.63432434 56.17986989 85.98046875 61.73828125 C88.28336727 63.46322076 90.59668687 65.16652498 92.92578125 66.85546875 C93.60165283 67.34644043 94.27752441 67.83741211 94.97387695 68.34326172 C96.2892547 69.29710474 97.60668788 70.24812204 98.92651367 71.19580078 C102.22481066 73.59014625 105.20748395 76.00502653 108 79 C106.02 80.65 104.04 82.3 102 84 C98.54680939 82.73868422 95.78164238 81.30231336 92.84765625 79.09375 C92.07873047 78.52011719 91.30980469 77.94648438 90.51757812 77.35546875 C89.30231445 76.43701172 89.30231445 76.43701172 88.0625 75.5 C86.34566805 74.21792474 84.62821646 72.93667885 82.91015625 71.65625 C82.06984863 71.02847656 81.22954102 70.40070313 80.36376953 69.75390625 C77.27211625 67.45991356 74.14330982 65.22239992 71 63 C65.51143332 59.10963664 60.09435376 55.12801073 54.6875 51.125 C47.97213278 46.15698165 41.20148855 41.28104354 34.36425781 36.48242188 C29.02766713 32.734549 23.72435308 28.94270586 18.4375 25.125 C17.71167725 24.60156006 16.98585449 24.07812012 16.23803711 23.53881836 C15.5394458 23.03358643 14.84085449 22.52835449 14.12109375 22.0078125 C13.43901855 21.51958008 12.75694336 21.03134766 12.05419922 20.52832031 C10.62699013 19.46647946 9.23423085 18.35737932 7.87158203 17.21386719 C5.96386513 15.63965474 4.15767074 14.20931832 2 13 C-0.72999079 13.17117939 -0.72999079 13.17117939 -3 15 C-3.96292969 15.63550781 -4.92585938 16.27101563 -5.91796875 16.92578125 C-7.01169699 17.71600539 -8.10129969 18.51195984 -9.1875 19.3125 C-9.78989502 19.74981445 -10.39229004 20.18712891 -11.01293945 20.63769531 C-12.32258377 21.58865358 -13.63071546 22.54169773 -14.9375 23.49658203 C-17.03555 25.02591346 -19.14144291 26.54378717 -21.25 28.05859375 C-29.83975236 34.23286612 -38.37669097 40.47538432 -46.88452148 46.76196289 C-53.05818018 51.31893705 -59.26994343 55.82087301 -65.49633789 60.30541992 C-69.68730092 63.32541261 -73.86883476 66.3573015 -78.03271484 69.41455078 C-79.282652 70.33189764 -80.53422933 71.2470147 -81.78759766 72.15966797 C-84.63307118 74.23550865 -87.44433041 76.33625649 -90.19921875 78.53125 C-91.16472656 79.2840625 -92.13023437 80.036875 -93.125 80.8125 C-93.95257813 81.47894531 -94.78015625 82.14539063 -95.6328125 82.83203125 C-98 84 -98 84 -100.8046875 83.19921875 C-101.52914062 82.80347656 -102.25359375 82.40773438 -103 82 C-103 81.34 -103 80.68 -103 80 C-103.66 80 -104.32 80 -105 80 C-104.16081258 75.09312989 -100.91445928 73.3090475 -97.0625 70.5625 C-96.34884277 70.04099365 -95.63518555 69.5194873 -94.89990234 68.98217773 C-92.60735295 67.31095256 -90.30423442 65.6550658 -88 64 C-86.5215813 62.927847 -85.04371011 61.8549386 -83.56640625 60.78125 C-79.05390275 57.50739486 -74.52743689 54.25315508 -70 51 C-59.995185 43.80298089 -50.0266096 36.56157213 -40.11450195 29.23730469 C-33.94917353 24.68650939 -27.74603755 20.19033192 -21.52783203 15.7121582 C-14.3197312 10.51843975 -7.15525955 5.2661866 0 0 Z " fill="#D4B262" transform="translate(296,382)"/>
<path d="M0 0 C3.69135135 -0.31876955 6.01274349 -0.24412188 9.20703125 1.76171875 C14.5571733 6.31605114 14.5571733 6.31605114 15.88671875 10.3046875 C15.97661249 12.58928424 16.0042908 14.87648076 16.00024414 17.1628418 C16.00039017 17.85578339 16.00053619 18.54872498 16.00068665 19.26266479 C15.99999038 21.55144387 15.99221135 23.8401414 15.984375 26.12890625 C15.98250981 27.71645564 15.98108638 29.30400561 15.98008728 30.89155579 C15.97627009 35.0689147 15.96644661 39.24623881 15.9553833 43.42358398 C15.94515203 47.68668141 15.94058598 51.94978446 15.93554688 56.21289062 C15.92482364 64.57684066 15.90723328 72.94075574 15.88671875 81.3046875 C5.98671875 81.3046875 -3.91328125 81.3046875 -14.11328125 81.3046875 C-14.20374817 72.02069339 -14.27709255 62.73699333 -14.32052994 53.4526577 C-14.34138059 49.14128584 -14.36965167 44.83023188 -14.41503906 40.51904297 C-14.45858752 36.3563488 -14.48243733 32.19395989 -14.49279022 28.03105545 C-14.50016551 26.4450462 -14.51456795 24.85905314 -14.53620148 23.27317429 C-14.56535655 21.04682421 -14.56923242 18.82172595 -14.56738281 16.59521484 C-14.57626526 15.32946625 -14.58514771 14.06371765 -14.59429932 12.75961304 C-13.90415392 7.80262471 -11.5958657 4.78727195 -8.11328125 1.3046875 C-5.41897017 0.64753846 -2.73953878 0.39497971 0 0 Z " fill="#D8B15D" transform="translate(296.11328125,612.6953125)"/>
<path d="M0 0 C2.17464518 2.17464518 2.44574199 3.04790265 3.1574707 5.94873047 C3.46337883 7.17304276 3.46337883 7.17304276 3.77546692 8.42208862 C3.99007065 9.31147125 4.20467438 10.20085388 4.42578125 11.1171875 C4.65524948 12.04355011 4.88471771 12.96991272 5.12113953 13.92434692 C5.85822577 16.90630861 6.58554433 19.89055422 7.3125 22.875 C7.79036196 24.81656725 8.26887092 26.75797538 8.74804688 28.69921875 C9.70094162 32.56312484 10.65088462 36.42773732 11.59838867 40.29296875 C12.9544635 45.82010171 14.32001364 51.34480702 15.6953125 56.8671875 C15.89034866 57.65423065 16.08538483 58.4412738 16.28633118 59.25216675 C17.62354342 64.61040066 19.06604665 69.93417864 20.5625 75.25 C22.66042161 82.7176575 24.62074194 90.2038168 26.45117188 97.74267578 C26.85107586 99.38747661 27.25380285 101.03159184 27.65820312 102.67529297 C28.36059441 105.53230376 29.05611566 108.39091229 29.75 111.25 C29.97300781 112.15596924 30.19601562 113.06193848 30.42578125 113.99536133 C30.63074219 114.84767334 30.83570313 115.69998535 31.046875 116.578125 C31.23088867 117.33512695 31.41490234 118.09212891 31.60449219 118.87207031 C32 121 32 121 32 125 C21.44 125 10.88 125 0 125 C0 83.75 0 42.5 0 0 Z " fill="#D1BC9C" transform="translate(300,107)"/>
<path d="M0 0 C0.33 0 0.66 0 1 0 C1 39.6 1 79.2 1 120 C-9.23 120 -19.46 120 -30 120 C-28.87508804 111.00070429 -28.87508804 111.00070429 -27.94018555 107.32250977 C-27.73294357 106.49707169 -27.5257016 105.67163361 -27.31217957 104.82118225 C-27.0892775 103.95335617 -26.86637543 103.08553009 -26.63671875 102.19140625 C-26.28683647 100.80392433 -26.28683647 100.80392433 -25.92988586 99.38841248 C-25.1869047 96.44528601 -24.43752783 93.50383777 -23.6875 90.5625 C-22.7101653 86.71015896 -21.73547024 82.85715443 -20.76171875 79.00390625 C-20.52368027 78.06338913 -20.28564178 77.12287201 -20.04039001 76.15385437 C-18.24394451 69.03172824 -16.53887385 61.8913367 -14.8737793 54.73754883 C-6.18967266 17.59170124 -6.18967266 17.59170124 0 0 Z " fill="#EEE5D2" transform="translate(292,111)"/>
<path d="M0 0 C6.77756159 4.08025209 12.09400183 9.1441213 15.31640625 16.39453125 C16.26795925 20.86359061 16.43793499 25.12314935 16.42993164 29.68505859 C16.43007767 30.38819183 16.43022369 31.09132507 16.43037415 31.81576538 C16.42968209 34.1206988 16.42192305 36.42554959 16.4140625 38.73046875 C16.41219581 40.33615067 16.41077309 41.94183317 16.40977478 43.54751587 C16.4059694 47.75935457 16.39615613 51.97115841 16.3850708 56.1829834 C16.37481402 60.48656747 16.37026804 64.79015721 16.36523438 69.09375 C16.35453198 77.52735969 16.33747947 85.96094112 16.31640625 94.39453125 C13.67640625 94.39453125 11.03640625 94.39453125 8.31640625 94.39453125 C8.31498123 93.49774658 8.31355621 92.60096191 8.31208801 91.67700195 C8.2942176 83.20273641 8.25248453 74.72899043 8.18431568 66.25497437 C8.15010532 61.89891754 8.12494503 57.54320921 8.12084961 53.18701172 C8.11655378 48.97860943 8.08798581 44.77099248 8.04297447 40.56283569 C8.03004027 38.96182845 8.0256773 37.36072703 8.03025246 35.75967407 C8.21512157 23.64057734 8.21512157 23.64057734 2.31640625 13.39453125 C-2.5133659 8.69185836 -7.82430126 6.28169752 -14.49609375 5.83203125 C-20.57858483 6.02704241 -25.00843536 8.65098577 -29.68359375 12.39453125 C-34.69872655 18.26590623 -34.79577298 24.1152064 -34.88891602 31.59326172 C-34.90376541 32.63333122 -34.90376541 32.63333122 -34.91891479 33.69441223 C-34.95028701 35.96681402 -34.97519022 38.23923666 -35 40.51171875 C-35.02059055 42.09498613 -35.04158755 43.67824828 -35.06297302 45.26150513 C-35.11797684 49.41410054 -35.1674811 53.56674376 -35.21582031 57.71942139 C-35.26619443 61.96273009 -35.32179717 66.20596998 -35.37695312 70.44921875 C-35.48426911 78.7642646 -35.58577224 87.0793683 -35.68359375 95.39453125 C-38.65359375 95.39453125 -41.62359375 95.39453125 -44.68359375 95.39453125 C-44.75326766 85.8843323 -44.80649303 76.37422194 -44.83903027 66.86382294 C-44.85465071 62.44720916 -44.87582239 58.03077071 -44.90991211 53.61425781 C-44.94263532 49.34782704 -44.96047398 45.08156434 -44.96822548 40.8150177 C-44.97374581 39.19160824 -44.9845255 37.56820742 -45.00078392 35.94487 C-45.12264717 23.26699568 -44.16251592 15.27583127 -35.1015625 5.66796875 C-25.36450877 -3.487064 -12.35673662 -5.76104854 0 0 Z " fill="#B69C7C" transform="translate(310.68359375,599.60546875)"/>
<path d="M0 0 C3.70122931 1.68237696 5.94805287 3.49992241 8 7 C8.27451945 9.56153135 8.38019022 11.87339434 8.34057617 14.43066406 C8.34123329 15.54344727 8.34123329 15.54344727 8.34190369 16.67871094 C8.33981787 19.12461903 8.31649727 21.56983702 8.29296875 24.015625 C8.28737204 25.71384303 8.2831023 27.41206592 8.28010559 29.11029053 C8.26866266 33.57545392 8.2392003 38.04032359 8.20599365 42.50537109 C8.17528084 47.06343615 8.16159767 51.62154875 8.14648438 56.1796875 C8.11432994 65.11994134 8.06156659 74.05990027 8 83 C0.74 83 -6.52 83 -14 83 C-14.15828118 73.0641165 -14.28664487 63.12907303 -14.3626852 53.19221306 C-14.39918499 48.57786011 -14.44867362 43.96441588 -14.52807617 39.35058594 C-14.60425553 34.89605945 -14.64601478 30.44240569 -14.6641407 25.98727798 C-14.67705375 24.28953437 -14.7022716 22.59183741 -14.7401104 20.8944664 C-15.02344799 7.65540043 -15.02344799 7.65540043 -12.52249146 3.61016846 C-8.6109484 0.06940039 -5.3196589 -0.88660982 0 0 Z " fill="#0A0806" transform="translate(300,283)"/>
<path d="M0 0 C2.80134928 1.21797795 4.40555442 2.12280558 6.11862183 4.6506958 C7.32869808 7.87614124 7.26259494 10.94328033 7.22705078 14.33886719 C7.22734283 15.07096909 7.22763489 15.80307098 7.22793579 16.55735779 C7.22654547 18.97065189 7.21099848 21.38363501 7.1953125 23.796875 C7.19158131 25.47267488 7.18873484 27.14847694 7.18673706 28.82427979 C7.17910897 33.23018439 7.15946756 37.63595667 7.1373291 42.04180908 C7.11685293 46.53957326 7.10773155 51.03735887 7.09765625 55.53515625 C7.07622086 64.35683826 7.04104544 73.17838741 7 82 C0.07 82 -6.86 82 -14 82 C-14.09040134 72.17719921 -14.16377363 62.35467511 -14.20724869 52.53155231 C-14.2281155 47.97017767 -14.25641641 43.40910262 -14.30175781 38.84790039 C-14.34524818 34.44530992 -14.36914393 30.04300745 -14.37950897 25.64021873 C-14.38689464 23.96127985 -14.4013173 22.28235656 -14.42292023 20.60354042 C-14.45199756 18.25007811 -14.45595434 15.89780275 -14.45410156 13.54418945 C-14.46848267 12.8515097 -14.48286377 12.15882996 -14.49768066 11.44515991 C-14.45734206 6.70348957 -13.3413294 4.33235622 -10 1 C-6.80621918 -0.59689041 -3.47478685 -0.37348957 0 0 Z " fill="#0B0907" transform="translate(338,284)"/>
<path d="M0 0 C3.37495058 0.02428022 5.14420406 0.59958588 7.75 2.75 C11.58455117 6.67807681 11.45316728 9.24672195 11.42602539 14.48681641 C11.42617142 15.21862625 11.42631744 15.9504361 11.4264679 16.704422 C11.42577003 19.12849876 11.41798354 21.55249912 11.41015625 23.9765625 C11.40829162 25.65522215 11.40686793 27.33388234 11.40586853 29.01254272 C11.40204688 33.43487038 11.39221959 37.85716528 11.38116455 42.27947998 C11.37094286 46.79048215 11.36636928 51.30148959 11.36132812 55.8125 C11.35059702 64.66668338 11.33300306 73.52083385 11.3125 82.375 C4.3825 82.375 -2.5475 82.375 -9.6875 82.375 C-9.80050157 72.55220771 -9.89221608 62.72984772 -9.94656086 52.90655231 C-9.97264488 48.34508918 -10.00802062 43.78409413 -10.06469727 39.22290039 C-10.11906043 34.82029311 -10.14892953 30.41813577 -10.16188622 26.01521873 C-10.17111845 24.33625391 -10.18914732 22.65731347 -10.21615028 20.97854042 C-10.25249994 18.62488401 -10.25744319 16.2730818 -10.25512695 13.91918945 C-10.27310333 13.2265097 -10.29107971 12.53382996 -10.30960083 11.82015991 C-10.2681532 7.92253374 -9.77924136 6.48291719 -7.21452332 3.46598816 C-6.38060562 2.77596207 -5.54668793 2.08593597 -4.6875 1.375 C-3.6875 0.375 -3.6875 0.375 0 0 Z " fill="#0A0805" transform="translate(258.6875,283.625)"/>
<path d="M0 0 C0.66 0 1.32 0 2 0 C2 3.3 2 6.6 2 10 C0.62070313 10.75023437 -0.75859375 11.50046875 -2.1796875 12.2734375 C-13.43305637 18.39973444 -24.66279553 24.56511936 -35.85400391 30.80419922 C-39.37984527 32.76888307 -42.9088196 34.72792134 -46.4375 36.6875 C-47.9375157 37.52080507 -49.43751502 38.35413962 -50.9375 39.1875 C-132.46484375 84.48046875 -132.46484375 84.48046875 -134.73266602 85.74023438 C-136.23200611 86.57329079 -137.73119489 87.4066196 -139.23022461 88.24023438 C-143.1004128 90.39198615 -146.9735574 92.53814539 -150.8515625 94.67578125 C-151.65078125 95.11728516 -152.45 95.55878906 -153.2734375 96.01367188 C-154.78546621 96.84880401 -156.29841357 97.6822762 -157.8125 98.51367188 C-162.07792003 100.87233815 -166.19595186 103.36512975 -170.25146484 106.07104492 C-172 107 -172 107 -175 107 C-176.75 104.6875 -176.75 104.6875 -178 102 C-176.79667249 98.39001748 -176.11832959 98.22549817 -172.86328125 96.50390625 C-171.98744385 96.03412354 -171.11160645 95.56434082 -170.20922852 95.08032227 C-168.7753479 94.32900024 -168.7753479 94.32900024 -167.3125 93.5625 C-165.2863604 92.47934984 -163.26032144 91.3960114 -161.234375 90.3125 C-160.19474609 89.76078125 -159.15511719 89.2090625 -158.08398438 88.640625 C-153.39337125 86.14530199 -148.72668555 83.60679354 -144.0625 81.0625 C-142.71200562 80.32713013 -142.71200562 80.32713013 -141.33422852 79.5769043 C-132.65259788 74.83677864 -124.04848076 69.96263965 -115.4453125 65.08203125 C-110.68574308 62.38350314 -105.91110853 59.71362071 -101.125 57.0625 C-94.05191696 53.14379224 -86.99184623 49.20234281 -79.9375 45.25 C-78.87789063 44.65638672 -77.81828125 44.06277344 -76.7265625 43.45117188 C-72.44283361 41.05094019 -68.15943016 38.65012912 -63.87646484 36.24853516 C-52.45345721 29.84333008 -41.0230371 23.45224502 -29.57043457 17.10012817 C-13.96010973 9.72562595 -13.96010973 9.72562595 0 0 Z " fill="#D6B466" transform="translate(192,476)"/>
<path d="M0 0 C4.03063793 1.24436049 7.57946042 2.72065563 11.24609375 4.80078125 C12.23617432 5.35902588 13.22625488 5.91727051 14.24633789 6.49243164 C15.29942139 7.0930542 16.35250488 7.69367676 17.4375 8.3125 C18.54279053 8.93697021 19.64808105 9.56144043 20.78686523 10.20483398 C24.19430103 12.13121961 27.59766703 14.06461855 31 16 C34.85311662 18.18935552 38.70719969 20.37699208 42.5625 22.5625 C43.49521729 23.09182129 44.42793457 23.62114258 45.38891602 24.16650391 C53.34901983 28.66804212 61.39160183 33.0086115 69.44604492 37.33837891 C75.16264989 40.42412323 80.80399464 43.59668369 86.375 46.9375 C93.38378795 51.13914843 100.54271613 55.02503317 107.75 58.875 C116.50989424 63.55461613 125.1878321 68.33991221 133.7890625 73.30444336 C145.06048656 79.79304082 156.47943809 86.01742654 167.87695312 92.28076172 C171.92444336 94.50890636 175.96427206 96.75063224 180 99 C178.125 103.75 178.125 103.75 177 106 C172.75187699 105.39557236 169.64079223 103.90793134 165.90625 101.82421875 C165.32696747 101.50326233 164.74768494 101.18230591 164.15084839 100.85162354 C162.26346313 99.80352657 160.38172454 98.7457211 158.5 97.6875 C157.18206739 96.95273264 155.8638681 96.21844342 154.54541016 95.48461914 C146.29399234 90.88380904 138.07956393 86.21854905 129.89013672 81.50830078 C121.69111815 76.79896675 113.42208536 72.21837245 105.15014648 67.63867188 C97.88758394 63.61459053 90.65402787 59.54344467 83.4375 55.4375 C74.05630585 50.10572442 64.57553877 44.97343553 55.06274414 39.88085938 C48.56592086 36.39816731 42.14091614 32.83304429 35.765625 29.1328125 C29.42959062 25.50135965 22.96267487 22.09691881 16.52294922 18.65405273 C13.6710532 17.12170114 10.83306326 15.56684797 8 14 C7.17918945 13.55873779 6.35837891 13.11747559 5.51269531 12.6628418 C0.20401875 9.64163898 0.20401875 9.64163898 -0.78125 6.54296875 C-0.6884375 5.76566406 -0.595625 4.98835938 -0.5 4.1875 C-0.4278125 3.39730469 -0.355625 2.60710937 -0.28125 1.79296875 C-0.1884375 1.20128906 -0.095625 0.60960937 0 0 Z " fill="#D6B262" transform="translate(400,477)"/>
<path d="M0 0 C2.9375 2.4375 2.9375 2.4375 5 5 C5.33 5.33 5.66 5.66 6 6 C6.09443335 8.30053835 6.11742128 10.60402173 6.11352539 12.90649414 C6.11367142 13.62840439 6.11381744 14.35031464 6.1139679 15.09410095 C6.11326869 17.49114947 6.10547595 19.88812123 6.09765625 22.28515625 C6.0957921 23.94282489 6.09436818 25.60049407 6.09336853 27.25816345 C6.08954312 31.62954214 6.07971265 36.00088781 6.06866455 40.37225342 C6.05845092 44.82954461 6.05387101 49.28684111 6.04882812 53.74414062 C6.0380904 62.49611062 6.02049342 71.2480474 6 80 C-0.6 80 -7.2 80 -14 80 C-14.13560664 70.30760237 -14.24566061 60.61583568 -14.31087303 50.92270374 C-14.34217345 46.42166182 -14.38462147 41.92130303 -14.45263672 37.4206543 C-14.51787718 33.07638027 -14.55371575 28.73276285 -14.56926346 24.38803673 C-14.58034159 22.73136749 -14.60197559 21.07473383 -14.63438034 19.4183445 C-14.67801048 17.09557376 -14.68393203 14.7755078 -14.68115234 12.45239258 C-14.702724 11.76906357 -14.72429565 11.08573456 -14.746521 10.38169861 C-14.71113212 7.64457035 -14.49039838 5.58142344 -12.69440079 3.45206261 C-8.11853528 -0.47931134 -5.77970542 -0.91741356 0 0 Z " fill="#0A0806" transform="translate(370,286)"/>
<path d="M0 0 C4.16899143 0.31583268 6.84353641 1.95561556 10.0625 4.625 C11.55532393 7.61064786 11.18166977 10.31483718 11.17602539 13.64501953 C11.17617142 14.36707581 11.17631744 15.08913208 11.1764679 15.83306885 C11.17577007 18.22468041 11.16798375 20.61621451 11.16015625 23.0078125 C11.15829161 24.66405189 11.15686792 26.32029184 11.15586853 27.97653198 C11.15204699 32.33967608 11.14221978 36.702787 11.13116455 41.06591797 C11.12094264 45.51659699 11.11636924 49.96728137 11.11132812 54.41796875 C11.1005972 63.15366278 11.08300332 71.88932344 11.0625 80.625 C4.4625 80.625 -2.1375 80.625 -8.9375 80.625 C-9.05057301 71.08024653 -9.14225714 61.53593968 -9.19656086 51.99066734 C-9.22262727 47.55814048 -9.25797053 43.12609658 -9.31469727 38.69384766 C-9.36912369 34.41442765 -9.39894278 30.13547143 -9.41188622 25.85573196 C-9.42110714 24.22503994 -9.43911398 22.59437259 -9.46615028 20.96387863 C-9.50258453 18.67507331 -9.50743974 16.3881709 -9.50512695 14.09912109 C-9.51623001 12.79784271 -9.52733307 11.49656433 -9.53877258 10.15585327 C-8.55042687 4.3519903 -6.06633968 0.96291106 0 0 Z " fill="#0D0B09" transform="translate(226.9375,285.375)"/>
<path d="M0 0 C3.07803122 2.80238663 4.80841696 5.24953695 6.42578125 9.07421875 C8.07050989 12.861299 9.74525156 16.61482268 11.54296875 20.33203125 C12.18625122 21.66609009 12.18625122 21.66609009 12.8425293 23.02709961 C13.28636963 23.94628174 13.73020996 24.86546387 14.1875 25.8125 C17.95504074 33.64399123 21.62115962 41.51245333 25.1875 49.4375 C28.28121415 56.30265635 31.47597349 63.08930783 34.88476562 69.80322266 C37.90577852 75.76503118 40.80438418 81.78293703 43.6875 87.8125 C44.13923584 88.75536865 44.59097168 89.6982373 45.05639648 90.66967773 C46.37972939 93.44238682 47.69188828 96.22008043 49 99 C49.71470459 100.50506104 49.71470459 100.50506104 50.44384766 102.04052734 C50.90194824 103.02102051 51.36004883 104.00151367 51.83203125 105.01171875 C52.24815674 105.89690186 52.66428223 106.78208496 53.09301758 107.6940918 C54 110 54 110 54 113 C45.75 113 37.5 113 29 113 C24.0625 93.25 19.125 73.5 14.1875 53.75 C14.03095947 53.12673828 13.87441895 52.50347656 13.71313477 51.86132812 C12.55898998 47.26021862 11.42472046 42.65450623 10.296875 38.046875 C9.67711234 35.53124285 9.05732048 33.0156179 8.4375 30.5 C8.14447998 29.2944043 7.85145996 28.08880859 7.54956055 26.84667969 C6.03205236 20.70819437 4.3057451 14.88362543 2 9 C1.56022721 7.3443848 1.15349504 5.67874482 0.8125 4 C0.65394531 3.236875 0.49539063 2.47375 0.33203125 1.6875 C0.22246094 1.130625 0.11289062 0.57375 0 0 Z " fill="#C2A580" transform="translate(310,118)"/>
<path d="M0 0 C1.39317431 4.17952294 -0.11746884 7.15633724 -1.4375 11.1875 C-4.81041707 21.90678261 -7.51848809 32.75861546 -10.19506836 43.66674805 C-11.83829499 50.35955935 -13.51346798 57.03353378 -15.38623047 63.66650391 C-16.00959036 66.03646168 -16.49405136 68.4029396 -16.9375 70.8125 C-17.67877959 74.70725589 -18.6828266 78.44977869 -19.8125 82.25 C-22.0043251 89.69066941 -23.6891754 97.22193262 -25.3371582 104.79980469 C-25.53913818 105.71793945 -25.74111816 106.63607422 -25.94921875 107.58203125 C-26.21738403 108.82303589 -26.21738403 108.82303589 -26.4909668 110.08911133 C-27 112 -27 112 -28 113 C-29.78071246 113.08726223 -31.5648314 113.10699041 -33.34765625 113.09765625 C-34.42724609 113.09443359 -35.50683594 113.09121094 -36.61914062 113.08789062 C-37.75544922 113.07951172 -38.89175781 113.07113281 -40.0625 113.0625 C-41.20267578 113.05798828 -42.34285156 113.05347656 -43.51757812 113.04882812 C-46.34510351 113.03699747 -49.1725264 113.0205141 -52 113 C-51.31204289 109.34606438 -50.35966383 106.12821894 -48.9375 102.6875 C-48.39416016 101.36298828 -48.39416016 101.36298828 -47.83984375 100.01171875 C-47.56269531 99.34785156 -47.28554687 98.68398437 -47 98 C-46.34 98 -45.68 98 -45 98 C-44.83419434 97.47212891 -44.66838867 96.94425781 -44.49755859 96.40039062 C-42.52439056 90.2852994 -40.16658053 84.39887103 -37.625 78.5 C-37.25117188 77.61441406 -36.87734375 76.72882813 -36.4921875 75.81640625 C-34.30289855 70.71056456 -31.90893143 65.84432941 -29.1081543 61.04516602 C-27.9415542 58.89213474 -27.05044025 56.72749249 -26.1875 54.4375 C-24.26302235 49.44755005 -21.91269638 44.718671 -19.49389648 39.95678711 C-15.61149458 32.29012646 -11.91579377 24.5355767 -8.21289062 16.78100586 C-5.52646771 11.16018936 -2.80744818 5.56142117 0 0 Z " fill="#EBE2CE" transform="translate(282,118)"/>
<path d="M0 0 C8.25 0 16.5 0 25 0 C25.27662031 6.12662762 25.51483492 12.23145842 25.65917969 18.359375 C25.719334 20.43954989 25.80108959 22.5192213 25.90527344 24.59765625 C26.73625499 41.60833749 26.73625499 41.60833749 23.78344727 45.67578125 C21.28524568 47.89532638 18.64742565 49.2267092 15.59863281 50.55273438 C14.74108398 51.03033203 13.88353516 51.50792969 13 52 C13 53.65 13 55.3 13 57 C8.71 57 4.42 57 0 57 C0 38.19 0 19.38 0 0 Z " fill="#D8B465" transform="translate(169,405)"/>
<path d="M0 0 C7.92 0 15.84 0 24 0 C24 18.48 24 36.96 24 56 C20.37 56 16.74 56 13 56 C13 54.68 13 53.36 13 52 C11.49327071 51.15235861 9.97701926 50.31709216 8.41679382 49.57249451 C5.0520558 47.8710444 2.27055255 46.05246469 0 43 C-2.22221772 35.98534169 -1.21659411 28.1730718 -0.8125 20.9375 C-0.74722223 18.90708603 -0.68791852 16.87647068 -0.63476562 14.84570312 C-0.50318367 9.88810008 -0.24931505 4.95859929 0 0 Z " fill="#DBB562" transform="translate(400,406)"/>
<path d="M0 0 C2.1875 1.625 2.1875 1.625 4.1875 4.625 C4.42800903 6.65617371 4.42800903 6.65617371 4.41455078 9.00463867 C4.41439972 9.88532516 4.41424866 10.76601166 4.41409302 11.67338562 C4.40377045 12.62034805 4.39344788 13.56731049 4.3828125 14.54296875 C4.3799826 15.51534988 4.37715271 16.48773102 4.37423706 17.48957825 C4.36303599 20.59734366 4.33793148 23.70482159 4.3125 26.8125 C4.30247011 28.91861563 4.29334427 31.02473578 4.28515625 33.13085938 C4.2647979 38.29577296 4.22564889 43.46006442 4.1875 48.625 C-3.0725 48.625 -10.3325 48.625 -17.8125 48.625 C-17.92747569 42.46741291 -18.02695753 36.3135682 -18.0871582 30.15576172 C-18.1122588 28.0625342 -18.14634677 25.96939395 -18.18969727 23.87646484 C-18.25054451 20.86273641 -18.2787545 17.85016941 -18.30078125 14.8359375 C-18.32658768 13.90445892 -18.3523941 12.97298035 -18.37898254 12.01327515 C-18.38086564 7.62304564 -18.25738795 4.57002153 -15.46948242 1.04931641 C-10.56471937 -3.4259475 -5.79678623 -2.83398438 0 0 Z " fill="#0C0B07" transform="translate(303.8125,488.375)"/>
<path d="M0 0 C26.07 0 52.14 0 79 0 C79 4.95 79 9.9 79 15 C71.27129385 15.2274075 63.54446809 15.41020911 55.81332111 15.51812172 C52.22184199 15.56996049 48.63280061 15.64005434 45.04272461 15.75439453 C17.38382634 16.61270235 17.38382634 16.61270235 9.85546875 10.1484375 C8.20817581 8.45992009 6.58532732 6.74682636 5 5 C3.33719154 3.9935976 1.67158082 2.99176375 0 2 C0 1.34 0 0.68 0 0 Z " fill="#D1BFA4" transform="translate(314,385)"/>
<path d="M0 0 C25.74 0 51.48 0 78 0 C78 0.66 78 1.32 78 2 C75.78185976 3.7288446 73.56393531 5.34666947 71.25 6.9375 C69.98414391 7.82128368 68.71851313 8.70539017 67.453125 9.58984375 C66.88754883 9.98034912 66.32197266 10.37085449 65.73925781 10.77319336 C63.9467464 11.98721693 63.9467464 11.98721693 62.26391602 13.5553894 C59.34534602 15.41773638 57.48585813 15.36230583 54.03808594 15.34057617 C52.83714294 15.34034958 51.63619995 15.34012299 50.39886475 15.33988953 C49.10708313 15.32440567 47.81530151 15.30892181 46.484375 15.29296875 C45.14488195 15.28737052 43.80538274 15.28310149 42.46588135 15.28010559 C38.94762079 15.26867454 35.42973429 15.23922294 31.91162109 15.20599365 C28.31873636 15.17525489 24.72579094 15.16159216 21.1328125 15.14648438 C14.08837441 15.11435106 7.04425104 15.06159771 0 15 C0 10.05 0 5.1 0 0 Z " fill="#D2C0A5" transform="translate(201,385)"/>
<path d="M0 0 C16.17 0 32.34 0 49 0 C49 11.55 49 23.1 49 35 C44.69287666 33.27715066 41.47717536 31.38848574 37.8125 28.6875 C36.916521 28.03696655 36.916521 28.03696655 36.00244141 27.37329102 C34.69794104 26.42597131 33.39494191 25.47658173 32.09326172 24.52539062 C29.90334288 22.92956454 27.70481867 21.34625031 25.50390625 19.765625 C18.59669582 14.80291511 11.70146462 9.82344186 4.875 4.75 C3.92367188 4.04359375 2.97234375 3.3371875 1.9921875 2.609375 C1.33476562 2.07828125 0.67734375 1.5471875 0 1 C0 0.67 0 0.34 0 0 Z " fill="#D8C7AB" transform="translate(344,407)"/>
<path d="M0 0 C16.17 0 32.34 0 49 0 C46.16437522 2.83562478 44.03305039 4.80770785 40.8046875 6.953125 C39.6149231 7.75206177 39.6149231 7.75206177 38.40112305 8.56713867 C37.56750244 9.12248291 36.73388184 9.67782715 35.875 10.25 C29.87712579 14.29528734 24.06041452 18.39962198 18.48046875 23.01171875 C15.23008026 25.61714826 11.8796417 28.06568271 8.5 30.5 C7.88729248 30.94625732 7.27458496 31.39251465 6.64331055 31.85229492 C2.23899951 35 2.23899951 35 0 35 C0 23.45 0 11.9 0 0 Z " fill="#D9C8AC" transform="translate(201,407)"/>
<path d="M0 0 C1.26070312 -0.10828125 1.26070312 -0.10828125 2.546875 -0.21875 C6.11443933 0.72985092 7.79409413 2.03946015 10.07226562 4.92822266 C12.73725018 10.74765617 11.84254158 17.66778757 11.625 23.9375 C11.59486731 25.44721254 11.5674973 26.95698289 11.54296875 28.46679688 C11.48233719 32.14713276 11.3649531 35.81937212 11.25 39.5 C3.66 39.5 -3.93 39.5 -11.75 39.5 C-11.86519452 35.05093182 -11.96458347 30.60708984 -12.0246582 26.15771484 C-12.04971095 24.64646826 -12.08376377 23.13534176 -12.12719727 21.62451172 C-12.1882669 19.44468499 -12.21629916 17.26646738 -12.23828125 15.0859375 C-12.26446533 13.7767334 -12.29064941 12.4675293 -12.31762695 11.11865234 C-11.57576311 6.38923044 -10.10237596 4.8444895 -6.75 1.5 C-4.37929071 0.31464535 -2.6446042 0.16027904 0 0 Z " fill="#0E0E0D" transform="translate(511.75,590.5)"/>
<path d="M0 0 C4.02204729 2.085506 6.43445092 3.74048075 8 8 C8.22705078 11.29980469 8.22705078 11.29980469 8.1953125 15.171875 C8.1924826 15.8542926 8.18965271 16.53671021 8.18673706 17.23980713 C8.17558098 19.41005307 8.15048557 21.57987971 8.125 23.75 C8.11496426 25.22525444 8.10583944 26.70051537 8.09765625 28.17578125 C8.07736175 31.78414397 8.03820653 35.39160504 8 39 C0.41 39 -7.18 39 -15 39 C-15.11519452 34.55093182 -15.21458347 30.10708984 -15.2746582 25.65771484 C-15.29971095 24.14646826 -15.33376377 22.63534176 -15.37719727 21.12451172 C-15.4382669 18.94468499 -15.46629916 16.76646738 -15.48828125 14.5859375 C-15.51446533 13.2767334 -15.54064941 11.9675293 -15.56762695 10.61865234 C-14.82576311 5.88923044 -13.35237596 4.3444895 -10 1 C-6.78501861 -0.6074907 -3.48701742 -0.47314549 0 0 Z " fill="#151311" transform="translate(86,591)"/>
<path d="M0 0 C2.25973454 2.12053456 3.92765547 4.26066351 5.56640625 6.88671875 C6.04658203 7.65177734 6.52675781 8.41683594 7.02148438 9.20507812 C7.78428711 10.43387695 7.78428711 10.43387695 8.5625 11.6875 C9.09552734 12.53892578 9.62855469 13.39035156 10.17773438 14.26757812 C11.78889183 16.8427416 13.39482562 19.42110409 15 22 C15.86291892 23.38173676 16.72617179 24.76326506 17.58984375 26.14453125 C18.79612763 28.07395516 20.00219181 30.0035116 21.20703125 31.93383789 C28.60466037 43.78270762 36.07212141 55.58629384 43.64453125 67.32421875 C47.0235012 72.57990473 50.34348958 77.8733035 53.6640625 83.16601562 C56.64329757 87.90130389 59.70887254 92.55757951 62.8918457 97.15893555 C64 99 64 99 64 101 C58.72 101 53.44 101 48 101 C43.17683785 91.5428193 38.57604505 82.01283992 34.125 72.375 C29.09514962 61.49466715 24.03339048 50.62999548 18.91790771 39.78961182 C18.15359986 38.16852823 17.39072497 36.54676805 16.62945557 34.92425537 C12.24205508 25.57642112 7.70870145 16.35132963 2.75482178 7.28816223 C0 2.2054092 0 2.2054092 0 0 Z " fill="#BCA07C" transform="translate(325,131)"/>
<path d="M0 0 C4.62 0 9.24 0 14 0 C15.38674249 18.70864193 16.30144887 37.22643452 16 56 C11.05 56 6.1 56 1 56 C-0.2139528 37.33547569 -0.09499672 18.69324296 0 0 Z " fill="#D8B25F" transform="translate(475,406)"/>
<path d="M0 0 C4.95 0 9.9 0 15 0 C15.61288424 18.67108054 16.18159485 37.31590777 16 56 C11.05 56 6.1 56 1 56 C0.85433203 50.91789236 0.71211146 45.83570257 0.57275391 40.75341797 C0.52514264 39.03334098 0.47667403 37.31328746 0.42724609 35.59326172 C0.0869701 23.72526851 -0.06461403 11.87282795 0 0 Z " fill="#DAB560" transform="translate(453,406)"/>
<path d="M0 0 C4.62 0 9.24 0 14 0 C14 18.48 14 36.96 14 56 C9.05 56 4.1 56 -1 56 C-1.10678483 37.30078905 -0.99063957 18.68063187 0 0 Z " fill="#DDB866" transform="translate(148,406)"/>
<path d="M0 0 C4.62 0 9.24 0 14 0 C14.69221352 18.67740412 15.15008286 37.30634554 15 56 C10.05 56 5.1 56 0 56 C0 37.52 0 19.04 0 0 Z " fill="#D8B261" transform="translate(432,406)"/>
<path d="M0 0 C4.62 0 9.24 0 14 0 C14.13305609 11.9916799 13.60607551 23.90195795 13 35.875 C12.90333277 37.83462 12.8069764 39.79425536 12.7109375 41.75390625 C12.47753637 46.50278859 12.23994853 51.25144416 12 56 C7.38 56 2.76 56 -2 56 C-2.2453461 37.17650182 -1.67959019 18.76042255 0 0 Z " fill="#DBB865" transform="translate(105,406)"/>
<path d="M0 0 C0.495 0.99 0.495 0.99 1 2 C0.30664062 3.7331543 0.30664062 3.7331543 -0.84375 5.82421875 C-1.26188965 6.59709229 -1.6800293 7.36996582 -2.11083984 8.16625977 C-2.5692627 8.99826904 -3.02768555 9.83027832 -3.5 10.6875 C-7.58020992 18.26735618 -11.4000507 25.8896171 -14.96289062 33.72558594 C-17.1649493 38.55477112 -19.39915617 43.3692448 -21.625 48.1875 C-22.65896057 50.42703421 -23.69281226 52.66661869 -24.7265625 54.90625 C-25.25797852 56.05738281 -25.78939453 57.20851562 -26.33691406 58.39453125 C-27.47542917 60.86276247 -28.61298184 63.3314129 -29.74902344 65.80078125 C-31.21300929 68.98291331 -32.68010031 72.16359803 -34.14910889 75.34341431 C-34.98001711 77.14419227 -35.80767603 78.94646839 -36.63525391 80.7487793 C-39.21007461 86.3167582 -41.83507932 91.74288415 -45 97 C-49.95 97 -54.9 97 -60 97 C-51.78322734 76.45806835 -36.83826016 57.24595582 -24.72314453 38.82885742 C-19.03207044 30.13685859 -13.58941414 21.30102638 -8.18969727 12.42626953 C-7.55475342 11.3845459 -6.91980957 10.34282227 -6.265625 9.26953125 C-5.70649414 8.34760986 -5.14736328 7.42568848 -4.57128906 6.47583008 C-3.1430628 4.22541949 -1.63281393 2.10500108 0 0 Z " fill="#E8DFCC" transform="translate(266,134)"/>
<path d="M0 0 C4.62 0 9.24 0 14 0 C14.10678483 18.69921095 13.99063957 37.31936813 13 56 C8.38 56 3.76 56 -1 56 C-1.11638845 37.30025524 -0.88225877 18.68498036 0 0 Z " fill="#DFBB66" transform="translate(126,406)"/>
<path d="M0 0 C5.09554715 0.40391532 8.62112181 4.51011144 12 8 C16.74816908 14.26325438 17.12692562 20.65239504 17.11352539 28.29052734 C17.11367142 28.99366058 17.11381744 29.69679382 17.1139679 30.42123413 C17.11327584 32.72616755 17.1055168 35.03101834 17.09765625 37.3359375 C17.09578956 38.94161942 17.09436684 40.54730192 17.09336853 42.15298462 C17.08956315 46.36482332 17.07974988 50.57662716 17.06866455 54.78845215 C17.05840777 59.09203622 17.05386179 63.39562596 17.04882812 67.69921875 C17.03812573 76.13282844 17.02107322 84.56640987 17 93 C14.36 93 11.72 93 9 93 C8.99857498 92.10321533 8.99714996 91.20643066 8.99568176 90.2824707 C8.97781135 81.80820516 8.93607828 73.33445918 8.86790943 64.86044312 C8.83369907 60.50438629 8.80853878 56.14867796 8.80444336 51.79248047 C8.80014753 47.58407818 8.77157956 43.37646123 8.72656822 39.16830444 C8.71363402 37.5672972 8.70927105 35.96619578 8.71384621 34.36514282 C8.92073533 22.23139807 8.92073533 22.23139807 3 12 C0.48593689 9.70422757 0.48593689 9.70422757 -2 8 C-3.0173873 7.01769502 -4.02596117 6.02530403 -5 5 C-2.75 2.4375 -2.75 2.4375 0 0 Z " fill="#BFA380" transform="translate(310,601)"/>
<path d="M0 0 C60.72 0 121.44 0 184 0 C182.69322487 3.26693784 181.37007608 6.47918322 179.9375 9.6875 C179.59589844 10.45449219 179.25429688 11.22148437 178.90234375 12.01171875 C178.29364155 13.35297164 177.65870747 14.68258505 177 16 C165.45 16 153.9 16 142 16 C142.66 11.05 143.32 6.1 144 1 C72.72 1.495 72.72 1.495 0 2 C0 1.34 0 0.68 0 0 Z " fill="#AC7F35" transform="translate(205,238)"/>
<path d="M0 0 C3.3 0 6.6 0 10 0 C10.57462213 6.52830341 11.14411381 13.05702722 11.70898438 19.58618164 C11.90160609 21.80440163 12.09559641 24.02250323 12.29101562 26.24047852 C12.57266775 29.43996046 12.8492941 32.63984457 13.125 35.83984375 C13.21249512 36.82145981 13.29999023 37.80307587 13.39013672 38.81443787 C13.88014612 44.56788891 14.0830475 50.2256034 14 56 C10.04 56 6.08 56 2 56 C-0.38776806 15.74769186 -0.38776806 15.74769186 0 0 Z " fill="#D4AF5B" transform="translate(496,406)"/>
<path d="M0 0 C2.97 0 5.94 0 9 0 C9.15928334 18.6892451 8.67049223 37.32607815 8 56 C4.04 56 0.08 56 -4 56 C-4.23066939 47.31145311 -3.90799752 38.92057962 -2.85644531 30.29785156 C-2.05067153 23.66788832 -1.44049407 17.02956181 -0.875 10.375 C-0.78750488 9.34826172 -0.70000977 8.32152344 -0.60986328 7.26367188 C-0.40480634 4.84259711 -0.2021351 2.42132046 0 0 Z " fill="#D8B564" transform="translate(88,406)"/>
<path d="M0 0 C4.55555556 0.55555556 4.55555556 0.55555556 6 2 C6.09417773 4.08619022 6.11742878 6.17560477 6.11352539 8.26391602 C6.11367142 8.91755127 6.11381744 9.57118652 6.1139679 10.24462891 C6.11326883 12.41442128 6.10547678 14.58412879 6.09765625 16.75390625 C6.09579205 18.25463311 6.09436816 19.75536057 6.09336853 21.25608826 C6.08954352 25.21318226 6.0797134 29.17023978 6.06866455 33.12731934 C6.05845006 37.16234849 6.05387083 41.19738353 6.04882812 45.23242188 C6.03809111 53.15496469 6.0210149 61.07747781 6 69 C3.36 69 0.72 69 -2 69 C-2.0462833 60.29884419 -2.08184872 51.59773058 -2.10362434 42.89647865 C-2.11407407 38.85639736 -2.1282548 34.81640011 -2.15087891 30.77636719 C-2.17256512 26.87955267 -2.18455967 22.98281913 -2.18975449 19.08594894 C-2.19345786 17.59714864 -2.20068938 16.1083529 -2.21146011 14.61958694 C-2.22591919 12.53877333 -2.22798033 10.45829694 -2.22705078 8.37744141 C-2.231492 7.19163483 -2.23593323 6.00582825 -2.24050903 4.78408813 C-2 2 -2 2 0 0 Z " fill="#E2BF6A" transform="translate(295,290)"/>
<path d="M0 0 C1 1 1 1 1.12025452 3.62586975 C1.11803391 4.79613205 1.11581329 5.96639435 1.11352539 7.17211914 C1.11367142 7.81600082 1.11381744 8.45988251 1.1139679 9.12327576 C1.11326885 11.26060303 1.10547691 13.39784413 1.09765625 15.53515625 C1.09579204 17.01346285 1.09436815 18.49177007 1.09336853 19.97007751 C1.08954359 23.86798802 1.07971352 27.76586149 1.06866455 31.66375732 C1.05844992 35.63846333 1.0538708 39.61317529 1.04882812 43.58789062 C1.03809122 51.391944 1.02101509 59.19596682 1 67 C-1.31 67 -3.62 67 -6 67 C-6 44.89 -6 22.78 -6 0 C-3.49749232 -1.25125384 -2.59701335 -0.83774624 0 0 Z " fill="#E3BF6B" transform="translate(337,292)"/>
<path d="M0 0 C3.53571429 0.53571429 3.53571429 0.53571429 5 2 C5.09413687 4.05556661 5.11742998 6.11440181 5.11352539 8.17211914 C5.11367142 8.81600082 5.11381744 9.45988251 5.1139679 10.12327576 C5.11326885 12.26060303 5.10547691 14.39784413 5.09765625 16.53515625 C5.09579204 18.01346285 5.09436815 19.49177007 5.09336853 20.97007751 C5.08954359 24.86798802 5.07971352 28.76586149 5.06866455 32.66375732 C5.05844992 36.63846333 5.0538708 40.61317529 5.04882812 44.58789062 C5.03809122 52.391944 5.02101509 60.19596682 5 68 C2.69 68 0.38 68 -2 68 C-2.04628427 59.42922402 -2.08184919 50.85850003 -2.10362434 42.28763008 C-2.11407386 38.30808227 -2.12825422 34.32861979 -2.15087891 30.34912109 C-2.17256585 26.51066114 -2.18455982 22.67228341 -2.18975449 18.83376694 C-2.19345773 17.36729513 -2.200689 15.90082795 -2.21146011 14.43439102 C-2.22592019 12.38470894 -2.22798029 10.33536918 -2.22705078 8.28564453 C-2.231492 7.11760284 -2.23593323 5.94956116 -2.24050903 4.74612427 C-2 2 -2 2 0 0 Z " fill="#D5B266" transform="translate(258,291)"/>
<path d="M0 0 C1.65 0.33 3.3 0.66 5 1 C5 22.78 5 44.56 5 67 C3.02 67 1.04 67 -1 67 C-1.02312635 58.4119428 -1.04091658 49.82389851 -1.05181217 41.23581791 C-1.05704036 37.248428 -1.06413684 33.26105933 -1.07543945 29.27368164 C-1.08627061 25.42874886 -1.09227732 21.58383655 -1.09487724 17.73888969 C-1.09673108 16.26881017 -1.10035091 14.79873182 -1.10573006 13.32866096 C-1.11294355 11.27645533 -1.11399081 9.22433533 -1.11352539 7.17211914 C-1.115746 6.00185684 -1.11796661 4.83159454 -1.12025452 3.62586975 C-1 1 -1 1 0 0 Z " fill="#B48C43" transform="translate(364,293)"/>
<path d="M0 0 C1.65 0.33 3.3 0.66 5 1 C5 22.45 5 43.9 5 66 C3.02 66 1.04 66 -1 66 C-1.02312659 57.54232666 -1.0409167 49.08466644 -1.05181217 40.62696934 C-1.05704031 36.70011342 -1.06413669 32.77327906 -1.07543945 28.84643555 C-1.0862708 25.05985743 -1.09227736 21.2733001 -1.09487724 17.48670769 C-1.09673105 16.03895681 -1.10035081 14.59120712 -1.10573006 13.14346504 C-1.11294367 11.12242865 -1.11340808 9.10137152 -1.11352539 7.08032227 C-1.115746 5.92782486 -1.11796661 4.77532745 -1.12025452 3.58790588 C-1 1 -1 1 0 0 Z " fill="#DBB664" transform="translate(226,293)"/>
<path d="M0 0 C0.33 0 0.66 0 1 0 C1.33 12.87 1.66 25.74 2 39 C2.33 36.03 2.66 33.06 3 30 C3.33 30 3.66 30 4 30 C4 53.76 4 77.52 4 102 C3.01 101.67 2.02 101.34 1 101 C1 105.29 1 109.58 1 114 C26.41 114 51.82 114 78 114 C78 114.33 78 114.66 78 115 C52.26 115 26.52 115 0 115 C0 77.05 0 39.1 0 0 Z " fill="#CCBDA4" transform="translate(214,263)"/>
<path d="M0 0 C2.5625 0.1875 2.5625 0.1875 4.5625 2.1875 C4.73752995 4.76853306 4.79412279 7.24058163 4.7578125 9.8203125 C4.7549826 10.57214813 4.75215271 11.32398376 4.74923706 12.09860229 C4.73802874 14.50339578 4.71292352 16.90781881 4.6875 19.3125 C4.67747102 20.94140088 4.66834503 22.57030758 4.66015625 24.19921875 C4.63808735 28.19545556 4.60355351 32.19141494 4.5625 36.1875 C1.9225 36.1875 -0.7175 36.1875 -3.4375 36.1875 C-3.46215098 31.22127651 -3.48033649 26.25508834 -3.49243164 21.28881836 C-3.4974719 19.59805684 -3.50430405 17.90729971 -3.51293945 16.21655273 C-3.52501857 13.79149293 -3.53073123 11.36649056 -3.53515625 8.94140625 C-3.54031754 8.18098526 -3.54547882 7.42056427 -3.55079651 6.63710022 C-3.55099238 4.8201743 -3.49947277 3.00336873 -3.4375 1.1875 C-2.4375 0.1875 -2.4375 0.1875 0 0 Z " fill="#DBBA64" transform="translate(296.4375,493.8125)"/>
<path d="M0 0 C2.5 0.25 2.5 0.25 4.5 2.25 C4.72705078 4.58837891 4.72705078 4.58837891 4.6953125 7.4765625 C4.68564453 9.0234375 4.68564453 9.0234375 4.67578125 10.6015625 C4.65902344 11.68179688 4.64226563 12.76203125 4.625 13.875 C4.61597656 14.96296875 4.60695313 16.0509375 4.59765625 17.171875 C4.57403409 19.86480152 4.54109556 22.55729255 4.5 25.25 C1.53 25.25 -1.44 25.25 -4.5 25.25 C-4.55786668 21.45839703 -4.59355054 17.66690689 -4.625 13.875 C-4.64175781 12.79476562 -4.65851563 11.71453125 -4.67578125 10.6015625 C-4.68222656 9.5703125 -4.68867188 8.5390625 -4.6953125 7.4765625 C-4.70578613 6.52346191 -4.71625977 5.57036133 -4.72705078 4.58837891 C-4.39570795 1.175904 -3.37672276 0.33767228 0 0 Z " fill="#C1AE8F" transform="translate(511.5,597.75)"/>
<path d="M0 0 C2.375 0.75 2.375 0.75 3.375 1.75 C3.46213831 3.45772358 3.48200007 5.16898649 3.47265625 6.87890625 C3.46943359 7.91337891 3.46621094 8.94785156 3.46289062 10.01367188 C3.45451172 11.10228516 3.44613281 12.19089844 3.4375 13.3125 C3.43298828 14.40498047 3.42847656 15.49746094 3.42382812 16.62304688 C3.41199826 19.33208495 3.39551543 22.04101599 3.375 24.75 C0.405 24.75 -2.565 24.75 -5.625 24.75 C-5.71201039 21.14598519 -5.76539388 17.54223988 -5.8125 13.9375 C-5.83763672 12.91333984 -5.86277344 11.88917969 -5.88867188 10.83398438 C-5.89833984 9.85107422 -5.90800781 8.86816406 -5.91796875 7.85546875 C-5.9336792 6.94949951 -5.94938965 6.04353027 -5.96557617 5.11010742 C-5.625 2.75 -5.625 2.75 -4.27075195 0.9152832 C-2.625 -0.25 -2.625 -0.25 0 0 Z " fill="#BEA785" transform="translate(429.625,552.25)"/>
<path d="M0 0 C4.55555556 0.55555556 4.55555556 0.55555556 6 2 C6.08700342 3.63472882 6.10701063 5.27314055 6.09765625 6.91015625 C6.09443359 7.89951172 6.09121094 8.88886719 6.08789062 9.90820312 C6.07951172 10.94912109 6.07113281 11.99003906 6.0625 13.0625 C6.05798828 14.10728516 6.05347656 15.15207031 6.04882812 16.22851562 C6.03699913 18.8190666 6.02051689 21.40950559 6 24 C3.36 24 0.72 24 -2 24 C-2.05787784 20.37506666 -2.0935542 16.75025143 -2.125 13.125 C-2.14175781 12.09246094 -2.15851563 11.05992187 -2.17578125 9.99609375 C-2.18222656 9.00996094 -2.18867187 8.02382813 -2.1953125 7.0078125 C-2.20578613 6.09660645 -2.21625977 5.18540039 -2.22705078 4.24658203 C-2 2 -2 2 0 0 Z " fill="#D6C1A2" transform="translate(80,598)"/>
<path d="M0 0 C4.55555556 0.55555556 4.55555556 0.55555556 6 2 C6.08700342 3.63472882 6.10701063 5.27314055 6.09765625 6.91015625 C6.09443359 7.89951172 6.09121094 8.88886719 6.08789062 9.90820312 C6.07951172 10.94912109 6.07113281 11.99003906 6.0625 13.0625 C6.05798828 14.10728516 6.05347656 15.15207031 6.04882812 16.22851562 C6.03699913 18.8190666 6.02051689 21.40950559 6 24 C3.36 24 0.72 24 -2 24 C-2.05787784 20.37506666 -2.0935542 16.75025143 -2.125 13.125 C-2.14175781 12.09246094 -2.15851563 11.05992187 -2.17578125 9.99609375 C-2.18222656 9.00996094 -2.18867188 8.02382813 -2.1953125 7.0078125 C-2.20578613 6.09660645 -2.21625977 5.18540039 -2.22705078 4.24658203 C-2 2 -2 2 0 0 Z " fill="#D2B993" transform="translate(163,552)"/>
<path d="M0 0 C2.97424516 2.72430859 4.7041072 5.03524267 6.25 8.75 C8.72906254 14.50080338 11.51641397 20.05337008 14.40917969 25.60449219 C17 30.6741377 17 30.6741377 17 34 C16.1028125 34.1546875 16.1028125 34.1546875 15.1875 34.3125 C12.70016036 35.09423531 11.75303972 36.1264074 10 38 C9.86424561 37.40574219 9.72849121 36.81148437 9.58862305 36.19921875 C8.96057063 33.46481195 8.32409423 30.73243027 7.6875 28 C7.47416016 27.06542969 7.26082031 26.13085938 7.04101562 25.16796875 C5.72960959 19.57002656 4.07812406 14.35694203 2 9 C1.56022721 7.3443848 1.15349504 5.67874482 0.8125 4 C0.65394531 3.236875 0.49539063 2.47375 0.33203125 1.6875 C0.22246094 1.130625 0.11289062 0.57375 0 0 Z " fill="#B19776" transform="translate(310,118)"/>
<path d="M0 0 C2.125 0.375 2.125 0.375 4 1 C3.02688873 1.55020561 3.02688873 1.55020561 2.03411865 2.11152649 C-0.26209182 3.86705407 -0.26209182 3.86705407 -0.51898193 6.79045105 C-0.52786438 7.92074234 -0.53674683 9.05103363 -0.54589844 10.21557617 C-0.56561707 11.4966777 -0.58533569 12.77777924 -0.60565186 14.09770203 C-0.60731502 15.49612383 -0.60854589 16.8945462 -0.609375 18.29296875 C-0.62435444 19.72359595 -0.6410811 21.15420584 -0.65948486 22.58479309 C-0.7031982 26.34785753 -0.72316592 30.11068872 -0.73822021 33.8739624 C-0.75777725 37.71494361 -0.79974869 41.55567236 -0.83984375 45.39648438 C-0.91518874 52.93092178 -0.9654538 60.46525338 -1 68 C0.98 68 2.96 68 5 68 C5 46.22 5 24.44 5 2 C5.33 2 5.66 2 6 2 C6 24.11 6 46.22 6 69 C3.36 69 0.72 69 -2 69 C-2.0462833 60.29884419 -2.08184872 51.59773058 -2.10362434 42.89647865 C-2.11407407 38.85639736 -2.1282548 34.81640011 -2.15087891 30.77636719 C-2.17256512 26.87955267 -2.18455967 22.98281913 -2.18975449 19.08594894 C-2.19345786 17.59714864 -2.20068938 16.1083529 -2.21146011 14.61958694 C-2.22591919 12.53877333 -2.22798033 10.45829694 -2.22705078 8.37744141 C-2.231492 7.19163483 -2.23593323 6.00582825 -2.24050903 4.78408813 C-2 2 -2 2 0 0 Z " fill="#AD9251" transform="translate(295,290)"/>
<path d="M0 0 C47.19 0 94.38 0 143 0 C143 0.33 143 0.66 143 1 C142.28639659 1.00331015 141.57279318 1.00662029 140.83756542 1.01003075 C123.48676768 1.09119483 106.13606234 1.18326549 88.78538799 1.28752708 C80.39478573 1.33768292 72.00419339 1.38412545 63.61352539 1.421875 C56.30157887 1.45478076 48.98970864 1.49460405 41.67784625 1.54279006 C37.80504191 1.56806921 33.93228826 1.58984625 30.05942345 1.60334396 C26.41590042 1.61615156 22.77255116 1.63819166 19.12912369 1.66738319 C17.15091033 1.68080914 15.17263785 1.68438299 13.19438171 1.68769836 C12.02069031 1.69886185 10.8469989 1.71002533 9.63774109 1.7215271 C8.10433846 1.72982324 8.10433846 1.72982324 6.539958 1.73828697 C3.75633324 1.8255298 3.75633324 1.8255298 1 4 C0.67 2.68 0.34 1.36 0 0 Z " fill="#D6B464" transform="translate(206,239)"/>
<path d="M0 0 C0.99 0.33 1.98 0.66 3 1 C1.02 1.99 1.02 1.99 -1 3 C-1 24.12 -1 45.24 -1 67 C0.65 67 2.3 67 4 67 C4 45.55 4 24.1 4 2 C4.33 2 4.66 2 5 2 C5 23.78 5 45.56 5 68 C2.69 68 0.38 68 -2 68 C-2 45.89 -2 23.78 -2 1 C-1.34 0.67 -0.68 0.34 0 0 Z " fill="#BC9E5B" transform="translate(333,291)"/>
<path d="M0 0 C1.65 0.33 3.3 0.66 5 1 C5 22.45 5 43.9 5 66 C3.02 66 1.04 66 -1 66 C-1.02312659 57.54232666 -1.0409167 49.08466644 -1.05181217 40.62696934 C-1.05704031 36.70011342 -1.06413669 32.77327906 -1.07543945 28.84643555 C-1.0862708 25.05985743 -1.09227736 21.2733001 -1.09487724 17.48670769 C-1.09673105 16.03895681 -1.10035081 14.59120712 -1.10573006 13.14346504 C-1.11294367 11.12242865 -1.11340808 9.10137152 -1.11352539 7.08032227 C-1.115746 5.92782486 -1.11796661 4.77532745 -1.12025452 3.58790588 C-1 1 -1 1 0 0 Z M1 2 C-0.06782486 5.20347459 -0.12058306 7.48187823 -0.11352539 10.84838867 C-0.11344986 12.0494072 -0.11337433 13.25042572 -0.11329651 14.48783875 C-0.10813522 15.78478165 -0.10297394 17.08172455 -0.09765625 18.41796875 C-0.09579077 19.75889534 -0.09436748 21.09982261 -0.09336853 22.44075012 C-0.08955356 25.96709073 -0.07973199 29.49339004 -0.06866455 33.01971436 C-0.0584285 36.61925701 -0.05386621 40.21880635 -0.04882812 43.81835938 C-0.0381088 50.87892313 -0.02104462 57.93945887 0 65 C1.32 65 2.64 65 4 65 C4 44.21 4 23.42 4 2 C3.01 2 2.02 2 1 2 Z " fill="#B49654" transform="translate(226,293)"/>
<path d="M0 0 C0.33 0.66 0.66 1.32 1 2 C0.30664062 3.7331543 0.30664062 3.7331543 -0.84375 5.82421875 C-1.47240967 6.98667114 -1.47240967 6.98667114 -2.11376953 8.17260742 C-2.57122559 9.00252197 -3.02868164 9.83243652 -3.5 10.6875 C-7.98594747 18.99466341 -12.1164216 27.39697368 -16 36 C-17.65 36 -19.3 36 -21 36 C-21.103125 36.639375 -21.20625 37.27875 -21.3125 37.9375 C-21.539375 38.618125 -21.76625 39.29875 -22 40 C-23.485 40.495 -23.485 40.495 -25 41 C-23.28886945 35.91753486 -20.38344135 31.66324924 -17.5 27.1875 C-16.42015946 25.49635768 -15.34073992 23.80494648 -14.26171875 22.11328125 C-13.71821777 21.26330566 -13.1747168 20.41333008 -12.61474609 19.53759766 C-9.71825858 14.98572417 -6.87659302 10.39961115 -4.03515625 5.81323242 C-1.10727782 1.10727782 -1.10727782 1.10727782 0 0 Z " fill="#D8D1C0" transform="translate(266,134)"/>
<path d="M0 0 C4.3219559 1.22319507 7.63598173 3.40872728 11.3125 5.9375 C11 7.8125 11 7.8125 10.3125 9.9375 C7.3125 11.9375 7.3125 11.9375 4.92578125 11.72265625 C2.18200874 10.8982941 -0.02706659 9.8144687 -2.5 8.375 C-3.29019531 7.91996094 -4.08039063 7.46492188 -4.89453125 6.99609375 C-5.48621094 6.64675781 -6.07789063 6.29742187 -6.6875 5.9375 C-6.375 4.0625 -6.375 4.0625 -5.6875 1.9375 C-2.6875 -0.0625 -2.6875 -0.0625 0 0 Z " fill="#DBB969" transform="translate(427.6875,492.0625)"/>
<path d="M0 0 C2.28305486 2.13843638 3.95178564 4.30359374 5.6015625 6.95703125 C6.33113159 8.12153809 6.33113159 8.12153809 7.07543945 9.30957031 C7.84247192 10.54852051 7.84247192 10.54852051 8.625 11.8125 C13.1024229 19.04628023 13.1024229 19.04628023 17.82421875 26.12109375 C18.24687012 26.73944092 18.66952148 27.35778809 19.10498047 27.99487305 C20.24093432 29.64597944 21.39526976 31.28439624 22.55078125 32.921875 C24.34844232 36.74008773 23.95026861 38.95500633 23 43 C22.34 42.34 21.68 41.68 21 41 C21 39.68 21 38.36 21 37 C20.34 37 19.68 37 19 37 C19 35.68 19 34.36 19 33 C18.34 33 17.68 33 17 33 C17 32.01 17 31.02 17 30 C16.01 29.67 15.02 29.34 14 29 C12.37426758 26.43969727 12.37426758 26.43969727 10.64453125 23.06640625 C10.33803146 22.47327133 10.03153168 21.88013641 9.71574402 21.26902771 C9.06996162 20.01464248 8.42890348 18.7578155 7.79223633 17.4987793 C6.81548819 15.56840564 5.82415877 13.64610502 4.83007812 11.72460938 C0 2.30768557 0 2.30768557 0 0 Z " fill="#BA9F7C" transform="translate(325,131)"/>
<path d="M0 0 C-1.875 3.875 -1.875 3.875 -3 5 C-3.12420734 7.29983022 -3.17804453 9.60347386 -3.20532227 11.90649414 C-3.21522186 12.62840439 -3.22512146 13.35031464 -3.23532104 14.09410095 C-3.26702299 16.49108551 -3.29172759 18.88808992 -3.31640625 21.28515625 C-3.33696829 22.94283069 -3.35796455 24.6004998 -3.37937927 26.25816345 C-3.4346775 30.62948295 -3.48405244 35.00085037 -3.53222656 39.37225342 C-3.58238516 43.82959274 -3.6381006 48.28686213 -3.69335938 52.74414062 C-3.8010357 61.49603634 -3.90194622 70.24799118 -4 79 C2.6 79 9.2 79 16 79 C16 79.33 16 79.66 16 80 C9.07 80 2.14 80 -5 80 C-5.06776435 70.15992192 -5.12280944 60.31999871 -5.15543652 50.47974014 C-5.1710955 45.91055892 -5.19233799 41.34154555 -5.22631836 36.77246094 C-5.25890357 32.36340433 -5.27685126 27.95450922 -5.28463173 23.54534149 C-5.29017675 21.86280525 -5.3010048 20.18027789 -5.31719017 18.49781036 C-5.33895363 16.1419003 -5.34196743 13.7866584 -5.34057617 11.43066406 C-5.351362 10.73438904 -5.36214783 10.03811401 -5.3732605 9.32073975 C-5.35358941 6.24426873 -5.13363722 4.23586698 -3.60371399 1.5355835 C-2 0 -2 0 0 0 Z " fill="#1B1915" transform="translate(254,286)"/>
<path d="M0 0 C2 2 2 2 2.3125 4.4375 C2 7 2 7 0.875 8.8125 C-1.87155972 10.55198782 -3.81846974 10.39769128 -7 10 C-8.875 8.8125 -8.875 8.8125 -10 7 C-10.42674516 4.15503228 -10.36066991 2.63647631 -8.9375 0.125 C-5.82785011 -1.68060316 -3.38260527 -0.79952488 0 0 Z " fill="#DDC483" transform="translate(301,75)"/>
<path d="M0 0 C0.66 0 1.32 0 2 0 C2 0.99 2 1.98 2 3 C2.66 3 3.32 3 4 3 C4 4.32 4 5.64 4 7 C4.66 7 5.32 7 6 7 C6.66 8.32 7.32 9.64 8 11 C8.66 10.01 9.32 9.02 10 8 C11.17213045 9.78809697 12.33755526 11.58059125 13.5 13.375 C14.1496875 14.37273437 14.799375 15.37046875 15.46875 16.3984375 C17 19 17 19 17 21 C15.68 20.67 14.36 20.34 13 20 C12.67 21.65 12.34 23.3 12 25 C9.78129576 22.21675215 8.18608994 19.51733576 6.73828125 16.26953125 C6.34189453 15.38458984 5.94550781 14.49964844 5.53710938 13.58789062 C5.13298828 12.67201172 4.72886719 11.75613281 4.3125 10.8125 C3.89677734 9.88501953 3.48105469 8.95753906 3.05273438 8.00195312 C0 1.14959206 0 1.14959206 0 0 Z " fill="#B49976" transform="translate(340,161)"/>
<path d="M0 0 C3.17695103 2.87342067 4.89359366 5.44232961 6.5625 9.375 C7.91185685 12.49434655 9.27003788 15.5307641 10.8125 18.5625 C12 21 12 21 12 23 C11.01 23 10.02 23 9 23 C9 21.68 9 20.36 9 19 C8.34 19 7.68 19 7 19 C6.67 19.66 6.34 20.32 6 21 C4.99534271 17.87647773 3.99707073 14.75095147 3 11.625 C2.71382813 10.73554688 2.42765625 9.84609375 2.1328125 8.9296875 C1.72675781 7.65351562 1.72675781 7.65351562 1.3125 6.3515625 C1.06113281 5.56604004 0.80976563 4.78051758 0.55078125 3.97119141 C0 2 0 2 0 0 Z " fill="#AE9575" transform="translate(310,118)"/>
<path d="M0 0 C1.08062462 3.24187386 0.96405231 3.89709861 0.00390625 7.01171875 C-0.22490234 7.76904297 -0.45371094 8.52636719 -0.68945312 9.30664062 C-1.05973633 10.48516602 -1.05973633 10.48516602 -1.4375 11.6875 C-1.68048828 12.48478516 -1.92347656 13.28207031 -2.17382812 14.10351562 C-2.77479738 16.07139534 -3.3863905 18.03602495 -4 20 C-7 20 -7 20 -9 19 C-7.69124677 16.01917332 -6.37737319 13.04063158 -5.0625 10.0625 C-4.68931641 9.21236328 -4.31613281 8.36222656 -3.93164062 7.48632812 C-3.57392578 6.67744141 -3.21621094 5.86855469 -2.84765625 5.03515625 C-2.51773682 4.2862915 -2.18781738 3.53742676 -1.84790039 2.76586914 C-1 1 -1 1 0 0 Z " fill="#CCC7B9" transform="translate(282,118)"/>
<path d="M0 0 C3.58839411 3.39065013 6.06455736 7.38598429 8.75 11.5 C9.26949219 12.27214844 9.78898437 13.04429687 10.32421875 13.83984375 C10.81019531 14.58363281 11.29617188 15.32742187 11.796875 16.09375 C12.24385742 16.77115234 12.69083984 17.44855469 13.15136719 18.14648438 C14 20 14 20 13 23 C12.34 23 11.68 23 11 23 C9.16002803 19.54515902 7.32916118 16.0855752 5.5 12.625 C4.97535156 11.64015625 4.45070313 10.6553125 3.91015625 9.640625 C3.16572266 8.22910156 3.16572266 8.22910156 2.40625 6.7890625 C1.94541016 5.91975098 1.48457031 5.05043945 1.00976562 4.15478516 C0 2 0 2 0 0 Z " fill="#AF9879" transform="translate(325,131)"/>
<path d="M0 0 C-1.875 3.875 -1.875 3.875 -3 5 C-3.16010481 7.73701178 -3.25946828 10.4516759 -3.31640625 13.19140625 C-3.33718735 14.01124496 -3.35796844 14.83108368 -3.37937927 15.67576599 C-3.44496494 18.30458901 -3.50380126 20.93351504 -3.5625 23.5625 C-3.60567667 25.34050561 -3.64929067 27.11850065 -3.69335938 28.89648438 C-3.80065543 33.26421634 -3.90189704 37.63205227 -4 42 C-4.33 42 -4.66 42 -5 42 C-5.07420941 36.66148922 -5.12863002 31.32327933 -5.16479492 25.984375 C-5.17987262 24.16856658 -5.20033798 22.35279453 -5.22631836 20.53710938 C-5.2627468 17.92568992 -5.27973638 15.31475235 -5.29296875 12.703125 C-5.30845261 11.89256653 -5.32393646 11.08200806 -5.33988953 10.24688721 C-5.34089418 6.87508583 -5.24393549 4.44538424 -3.60668945 1.45605469 C-2 0 -2 0 0 0 Z " fill="#221E1B" transform="translate(254,286)"/>
<path d="M0 0 C0.66 0 1.32 0 2 0 C2 1.32 2 2.64 2 4 C2.99 4 3.98 4 5 4 C5.33 5.98 5.66 7.96 6 10 C5.01 10.66 4.02 11.32 3 12 C3 11.01 3 10.02 3 9 C2.34 9 1.68 9 1 9 C0.67 6.03 0.34 3.06 0 0 Z " fill="#C6AA85" transform="translate(317,137)"/>
<path d="M0 0 C2.125 0.375 2.125 0.375 4 1 C3.01 1 2.02 1 1 1 C1 1.99 1 2.98 1 4 C0.34 4 -0.32 4 -1 4 C-1 10.6 -1 17.2 -1 24 C-1.33 24 -1.66 24 -2 24 C-2.05787784 20.37506666 -2.0935542 16.75025143 -2.125 13.125 C-2.14175781 12.09246094 -2.15851563 11.05992187 -2.17578125 9.99609375 C-2.18222656 9.00996094 -2.18867188 8.02382813 -2.1953125 7.0078125 C-2.20578613 6.09660645 -2.21625977 5.18540039 -2.22705078 4.24658203 C-2 2 -2 2 0 0 Z " fill="#B9A485" transform="translate(163,552)"/>
<path d="M0 0 C-0.06006078 1.45947705 -0.1488689 2.91779272 -0.25 4.375 C-0.29640625 5.18710938 -0.3428125 5.99921875 -0.390625 6.8359375 C-1 9 -1 9 -3.046875 10.2890625 C-4.01367188 10.64097656 -4.01367188 10.64097656 -5 11 C-5 7.21439879 -4.97845648 4.18230158 -2.5 1.1875 C-1 0 -1 0 0 0 Z " fill="#EDE8D7" transform="translate(277,135)"/>
<path d="M0 0 C0.33 0.66 0.66 1.32 1 2 C-0.07674702 4.28258633 -1.19546116 6.4356434 -2.4375 8.625 C-2.77587891 9.23601562 -3.11425781 9.84703125 -3.46289062 10.4765625 C-4.30146192 11.988353 -5.14982577 13.49470399 -6 15 C-6.66 14.67 -7.32 14.34 -8 14 C-6.6744419 10.37723685 -5.05653045 7.36494652 -2.875 4.1875 C-2.33617187 3.39730469 -1.79734375 2.60710937 -1.2421875 1.79296875 C-0.83226562 1.20128906 -0.42234375 0.60960937 0 0 Z " fill="#9F9A90" transform="translate(266,134)"/>
<path d="M0 0 C0.33 0 0.66 0 1 0 C1.46450943 6.50313209 0.32575612 10.4174808 -3 16 C-4.49828872 12.11764181 -3.43110582 9.56550712 -2.0625 5.75 C-1.68222656 4.67234375 -1.30195313 3.5946875 -0.91015625 2.484375 C-0.45962891 1.25460938 -0.45962891 1.25460938 0 0 Z " fill="#C4BEB0" transform="translate(292,111)"/>
<path d="M0 0 C0.66 0 1.32 0 2 0 C0.78184562 4.68520915 -0.69559987 8.70543612 -3 13 C-3.66 13 -4.32 13 -5 13 C-4.54554036 11.58208592 -4.08625056 10.16571954 -3.625 8.75 C-3.24214844 7.56664062 -3.24214844 7.56664062 -2.8515625 6.359375 C-2.04826333 4.13372042 -1.10288338 2.09068328 0 0 Z " fill="#DED6C5" transform="translate(248,189)"/>
<path d="M0 0 C0.99 0.33 1.98 0.66 3 1 C2.04882866 2.1725131 1.08882991 3.33787015 0.125 4.5 C-0.40867187 5.1496875 -0.94234375 5.799375 -1.4921875 6.46875 C-1.98976563 6.9740625 -2.48734375 7.479375 -3 8 C-3.66 8 -4.32 8 -5 8 C-3.8141763 4.62496331 -2.72426311 2.35277269 0 0 Z " fill="#BE9C56" transform="translate(288,614)"/>
<path d="M0 0 C0.66 0 1.32 0 2 0 C1.39009109 3.55780196 0.4216319 6.6828589 -1 10 C-1.33 9.34 -1.66 8.68 -2 8 C-2.66 8 -3.32 8 -4 8 C-2.87548273 5.0280615 -1.77706209 2.66559313 0 0 Z " fill="#D0CBBB" transform="translate(257,148)"/>
<path d="M0 0 C2.68234235 2.42457972 4.36856725 5.07510397 6.1875 8.1875 C6.71730469 9.08855469 7.24710937 9.98960937 7.79296875 10.91796875 C8.19128906 11.60503906 8.58960938 12.29210937 9 13 C7.171875 12.80859375 7.171875 12.80859375 5 12 C3.515625 9.78515625 3.515625 9.78515625 2.25 7.0625 C1.82203125 6.16660156 1.3940625 5.27070313 0.953125 4.34765625 C0 2 0 2 0 0 Z " fill="#6C5D4B" transform="translate(325,131)"/>
<path d="M0 0 C0.66 0.33 1.32 0.66 2 1 C1.5206753 5.31392226 0.2542015 7.16569547 -3 10 C-3.33 9.34 -3.66 8.68 -4 8 C-3.22265625 6.0546875 -3.22265625 6.0546875 -2.0625 3.875 C-1.49208984 2.78832031 -1.49208984 2.78832031 -0.91015625 1.6796875 C-0.60980469 1.12539062 -0.30945313 0.57109375 0 0 Z " fill="#DAD2C2" transform="translate(267,149)"/>
<path d="M0 0 C0.85329541 3.09319586 1 5.79336115 1 9 C-0.65 9.33 -2.3 9.66 -4 10 C-3.52449439 8.51965236 -3.04448784 7.04074979 -2.5625 5.5625 C-2.29566406 4.73878906 -2.02882813 3.91507813 -1.75390625 3.06640625 C-1 1 -1 1 0 0 Z " fill="#D2C9B8" transform="translate(272,139)"/>
<path d="M0 0 C0.66 0.33 1.32 0.66 2 1 C-1.3 4.63 -4.6 8.26 -8 12 C-8 8.24111186 -7.049166 7.58681685 -4.5625 4.875 C-3.92441406 4.17117188 -3.28632812 3.46734375 -2.62890625 2.7421875 C-1.76410115 1.81724008 -0.89538137 0.89538137 0 0 Z " fill="#B09776" transform="translate(130,571)"/>
<path d="M0 0 C4.78378378 4.78378378 4.78378378 4.78378378 5 9 C4.01 10.485 4.01 10.485 3 12 C2.01 8.04 1.02 4.08 0 0 Z " fill="#786854" transform="translate(310,118)"/>
<path d="M0 0 C0.66 0.33 1.32 0.66 2 1 C-0.97 3.97 -3.94 6.94 -7 10 C-7 6.04435836 -5.59478606 4.89133304 -3 2 C-2.01 1.34 -1.02 0.68 0 0 Z " fill="#29251E" transform="translate(285,608)"/>
<path d="M0 0 C1.32 0.66 2.64 1.32 4 2 C4 2.66 4 3.32 4 4 C3.34 4 2.68 4 2 4 C1.34 5.32 0.68 6.64 0 8 C-0.33 8 -0.66 8 -1 8 C-1.04241723 5.66705225 -1.04092937 3.33297433 -1 1 C-0.67 0.67 -0.34 0.34 0 0 Z " fill="#C5A883" transform="translate(353,180)"/>
<path d="M0 0 C0.66 0.33 1.32 0.66 2 1 C-0.64 3.64 -3.28 6.28 -6 9 C-6.66 8.67 -7.32 8.34 -8 8 C-5.58443874 4.80800833 -3.31996462 2.25283313 0 0 Z " fill="#282622" transform="translate(275,596)"/>
<path d="M0 0 C1.31223496 3.93670488 0.24296256 6.12488144 -1 10 C-1.99 10 -2.98 10 -4 10 C-3.52449439 8.51965236 -3.04448784 7.04074979 -2.5625 5.5625 C-2.29566406 4.73878906 -2.02882813 3.91507812 -1.75390625 3.06640625 C-1 1 -1 1 0 0 Z " fill="#8F8A82" transform="translate(282,118)"/>
<path d="M0 0 C0.33 0 0.66 0 1 0 C2.01603857 5.79141983 1.96263236 9.4584498 0 15 C-0.33 15 -0.66 15 -1 15 C-1.09038099 9.84828377 -0.84681133 5.08086796 0 0 Z " fill="#A2874E" transform="translate(88,406)"/>
<path d="M0 0 C0.66 0 1.32 0 2 0 C2.33 2.64 2.66 5.28 3 8 C2.01 7.67 1.02 7.34 0 7 C0 4.69 0 2.38 0 0 Z " fill="#B3A68F" transform="translate(301,113)"/>
<path d="M0 0 C0.66 0.33 1.32 0.66 2 1 C-1.465 3.97 -1.465 3.97 -5 7 C-5.66 6.34 -6.32 5.68 -7 5 C-4.69 3.35 -2.38 1.7 0 0 Z " fill="#BB9F5B" transform="translate(234,427)"/>
<path d="M0 0 C1.98 0.495 1.98 0.495 4 1 C3.67 1.99 3.34 2.98 3 4 C0.9375 4.6875 0.9375 4.6875 -1 5 C-0.67 3.35 -0.34 1.7 0 0 Z " fill="#CBAD66" transform="translate(258,291)"/>
</svg>
