<?xml version="1.0" encoding="UTF-8"?>
<svg version="1.1" xmlns="http://www.w3.org/2000/svg" width="1024" height="1024">
<path d="M0 0 C337.92 0 675.84 0 1024 0 C1024 337.92 1024 675.84 1024 1024 C686.08 1024 348.16 1024 0 1024 C0 686.08 0 348.16 0 0 Z " fill="#FEFEFE" transform="translate(0,0)"/>
<path d="M0 0 C1 1 1 1 1.01953125 3.484375 C0.05758057 18.65778566 -4.5764054 33.37207865 -16 44 C-18.27099231 45.56446137 -20.52630692 46.74066534 -23 48 C-23.86625 48.556875 -24.7325 49.11375 -25.625 49.6875 C-30.67060026 52.47585804 -36.07502478 52.15356221 -41.6875 52.125 C-42.45900391 52.12886719 -43.23050781 52.13273437 -44.02539062 52.13671875 C-49.74654908 52.12672546 -49.74654908 52.12672546 -52 51 C-51.99476318 51.57854736 -51.98952637 52.15709473 -51.98413086 52.75317383 C-51.81727622 73.98173114 -51.81727622 73.98173114 -53 83 C-52.41992188 82.52949219 -51.83984375 82.05898438 -51.2421875 81.57421875 C-42.26751754 74.42114022 -33.76747081 70.31790247 -22.1171875 70.640625 C-9.15583609 72.13491614 -0.43291108 77.35285647 8 87 C12.94571317 93.36652113 14.10542387 100.10903738 15 108 C15.58007812 107.72285156 16.16015625 107.44570313 16.7578125 107.16015625 C21.17846817 105.11031427 25.09236328 103.40062341 30 103 C30.71542969 102.93683594 31.43085937 102.87367188 32.16796875 102.80859375 C42.85443704 102.28191566 52.8466679 106.1675988 61 113 C68.69218207 120.26712388 73.29764861 128.06688347 74.23828125 138.69140625 C74.55787091 151.05448007 70.71280228 161.42159953 62.515625 170.67578125 C55.16820548 177.71402718 45.06069339 181.65895955 35 182 C35.45890625 182.53367187 35.9178125 183.06734375 36.390625 183.6171875 C45.11099469 194.20620784 47.16024252 203.46998389 46.22753906 216.95605469 C45.11237474 226.97338918 38.51760841 235.5281937 30.8359375 241.68359375 C24.12574001 246.49494812 18.2226676 247.69769604 10 248 C10.474375 249.03125 10.94875 250.0625 11.4375 251.125 C15.49659386 260.69833457 14.76181686 270.85176813 11.0703125 280.40625 C6.49614467 290.62714915 -0.82764801 297.22089792 -10.9140625 301.9140625 C-15.57150452 303.55301045 -20.08564472 303.98065214 -25 304 C-24.690625 304.53625 -24.38125 305.0725 -24.0625 305.625 C-20.81996695 312.87301506 -20.3375645 323.29836575 -22.5625 330.92919922 C-27.35562347 343.46230535 -35.18146736 350.43410547 -46.75390625 356.65234375 C-56.15625312 360.55584516 -66.58367518 359.6269174 -75.99609375 356.29296875 C-84.6989223 352.45812076 -93.25307711 344.85210532 -97 336 C-98.76001876 330.16838855 -99.31142769 324.94610299 -99.25 318.875 C-99.26160156 317.71677734 -99.26160156 317.71677734 -99.2734375 316.53515625 C-99.25787587 311.96781911 -98.73029176 308.29826445 -97 304 C-97.67804688 303.98582031 -98.35609375 303.97164062 -99.0546875 303.95703125 C-110.74007402 303.35819565 -119.05287492 298.48217904 -127 290 C-132.92820911 282.38646461 -135.51576068 274.52327372 -135.3125 264.9375 C-135.31572266 264.17373047 -135.31894531 263.40996094 -135.32226562 262.62304688 C-135.27622456 257.73013694 -134.54726312 253.64178935 -133 249 C-133.56847656 248.89042969 -134.13695312 248.78085937 -134.72265625 248.66796875 C-146.17165882 246.31700495 -154.91326236 241.6822562 -161.68359375 232.015625 C-168.2623217 221.94255787 -169.48694736 211.90340493 -168 200 C-165.77969088 193.06339668 -161.97718611 187.26996177 -157 182 C-157.98226562 181.88785156 -157.98226562 181.88785156 -158.984375 181.7734375 C-169.46424497 180.26362572 -180.03871107 176.04467243 -186.9140625 167.66796875 C-194.51393015 156.64989578 -197.53717924 146.22828854 -195.4375 132.6875 C-193.32579161 124.21251032 -187.95786198 116.2601951 -181 111 C-171.16966329 105.12891614 -161.63906719 101.35265853 -150.10546875 103.83984375 C-148.79698403 104.19670322 -147.49095241 104.56267637 -146.1875 104.9375 C-145.52041016 105.11990234 -144.85332031 105.30230469 -144.16601562 105.49023438 C-141.67838982 106.18054426 -139.31474768 106.84262616 -137 108 C-137.1546875 106.63875 -137.1546875 106.63875 -137.3125 105.25 C-137.2359067 95.77157937 -131.68442981 87.67137019 -125.31640625 81.125 C-117.06636902 73.55666905 -107.10132962 70.28359359 -95.89453125 70.65234375 C-86.67756283 71.75937505 -78.89174808 74.75370265 -72 81 C-68.69578691 77.69578691 -69.8969924 67.67766755 -69.8125 63.1875 C-70.02914886 46.33221859 -74.48838652 30.02322696 -82 15 C-82.6847676 8.03819604 -82.6847676 8.03819604 -80.0625 4.0625 C-76.23042527 1.48171498 -72.63256479 0.13282038 -68 1 C-62.86813056 4.36960484 -60.83485325 7.58578158 -59.125 13.5 C-58.91359375 14.15097656 -58.7021875 14.80195313 -58.484375 15.47265625 C-57.36671591 19.06513189 -56.7541656 22.24017979 -57 26 C-56.34 26 -55.68 26 -55 26 C-54.83177734 25.14535156 -54.83177734 25.14535156 -54.66015625 24.2734375 C-52.41679278 16.54777159 -46.61876712 11.13355954 -40 7 C-39.14535156 6.43152344 -39.14535156 6.43152344 -38.2734375 5.8515625 C-27.3007396 -0.57737504 -12.36188509 -0.82730762 0 0 Z " fill="#0A0607" transform="translate(561,354)"/>
<path d="M0 0 C7.95155251 3.61434205 14.66333884 11.04541899 17.7421875 19.1953125 C20.25747865 28.79915144 19.48076114 38.49570207 14.7421875 47.1953125 C10.13654811 54.74749927 4.93508145 59.42025603 -3.5703125 62.0078125 C-13.10904589 64.291367 -21.80189146 63.99779076 -30.38671875 58.94140625 C-37.69098913 53.85475116 -42.55310343 47.56668514 -44.7890625 38.90234375 C-46.55024056 28.73154047 -45.48122107 19.60172398 -39.6328125 11.0078125 C-29.79648277 -1.31219048 -14.72799716 -3.63785062 0 0 Z " fill="#851845" transform="translate(512.2578125,463.8046875)"/>
<path d="M0 0 C1.38052257 0.7447556 2.73645289 1.53708441 4.0625 2.375 C4.75859375 2.79910156 5.4546875 3.22320312 6.171875 3.66015625 C11.55823145 7.29493438 14.86391726 11.77238693 18.0625 17.375 C18.62324219 18.23544922 18.62324219 18.23544922 19.1953125 19.11328125 C21.82521331 25.97234687 21.22287144 35.9443366 18.89453125 42.828125 C14.21125377 51.64087336 6.68895994 59.16618002 -2.9375 62.375 C-20.87184892 63.53144322 -20.87184892 63.53144322 -27.29296875 60.09375 C-30.30575311 56.94499675 -30.9006003 52.8431938 -31.921875 48.70703125 C-34.20244194 41.2250174 -39.83955312 35.98564276 -45.9375 31.375 C-45.35274732 27.85089055 -44.08222253 26.17167174 -41.625 23.625 C-37.28799843 18.83474622 -34.32947892 14.21684716 -33.4375 7.75 C-31.28572195 2.9084994 -28.23821889 1.60469429 -23.5 -0.51953125 C-15.85811389 -2.89086214 -7.48594957 -3.04600707 0 0 Z " fill="#871846" transform="translate(607.9375,465.625)"/>
<path d="M0 0 C3.77350326 2.16645874 5.79052668 3.69560552 7.125 7.875 C7.37443359 9.02355469 7.37443359 9.02355469 7.62890625 10.1953125 C8.93944762 15.74907521 12.27260472 20.68506022 16.0625 24.875 C18.1875 27.5625 18.1875 27.5625 18.02734375 29.515625 C17.02239199 31.96490278 15.81150988 33.20447799 13.875 35 C8.64271125 39.89179274 5.94276313 43.48752103 4.5 50.625 C2.75620954 56.95701478 2.75620954 56.95701478 0.49609375 59.36328125 C-6.8546939 63.19908126 -17.55669028 62.71939106 -25.4921875 60.97265625 C-33.37608639 57.92851735 -40.86998898 51.44578506 -44.375 43.75 C-44.90006035 42.37077449 -45.38323681 40.97447893 -45.8125 39.5625 C-46.00070312 38.9540625 -46.18890625 38.345625 -46.3828125 37.71875 C-48.12197924 28.99129507 -47.66632429 20.12297398 -42.8125 12.5625 C-33.17562851 -1.61453891 -15.75989829 -6.93819912 0 0 Z " fill="#7C1740" transform="translate(418.8125,466.4375)"/>
<path d="M0 0 C3.45147271 -0.50001214 6.56208431 -0.65918737 10 0 C12.0531562 1.75610381 13.46935148 3.66756928 15.0859375 5.828125 C19.24274635 10.54483055 25.47453832 13.36863458 31.5 14.875 C34 16 34 16 35.875 19.1875 C38.53865057 27.94405188 38.33198376 38.42387329 34.3828125 46.72265625 C29.18239546 55.28718487 22.67466259 60.54792938 13.1171875 63.6015625 C4.74778509 65.17661609 -3.34320564 64.88717256 -10.75390625 60.54296875 C-18.20663014 55.42327147 -23.77004794 49.91856921 -26.609375 41.109375 C-28.05884852 33.282218 -27.71040155 24.69730633 -24.71875 17.29296875 C-21.8190243 13.42447105 -17.83844053 12.62710634 -13.34765625 11.25 C-7.98580474 9.24790842 -2.61465895 5.22931789 0 0 Z " fill="#841844" transform="translate(495,642)"/>
<path d="M0 0 C3.67513988 0.2846236 5.20190257 0.79942246 7.9375 3.30859375 C10 5.9375 10 5.9375 11.7734375 8.609375 C14.68971551 12.67001527 18.27778113 15.22658113 22.75 17.375 C23.41257812 17.69855469 24.07515625 18.02210938 24.7578125 18.35546875 C26.78320011 19.29428324 26.78320011 19.29428324 29.625 20.1875 C33.12008382 26.77755703 32.51426172 34.63839297 30.75 41.6796875 C27.37544187 51.29273795 22.97974269 56.45338558 14.3125 61.625 C5.71122229 65.64974882 -4.40553178 65.88667447 -13.50390625 63.296875 C-23.09384556 58.90453638 -28.35193956 51.69655195 -32.375 42.1875 C-34.29428353 36.4296494 -33.51119393 30.29850588 -33.125 24.3125 C-30.60227372 19.80763165 -27.20136923 19.16145107 -22.484375 17.41796875 C-15.92457364 14.82206746 -11.96102766 11.45488144 -8.5625 5.3125 C-6.17351718 1.49142939 -4.5193212 0.41649865 0 0 Z " fill="#851844" transform="translate(499.375,545.8125)"/>
<path d="M0 0 C9.52180557 -0.71562631 16.00186291 1.24845788 23.3125 7.4375 C29.49374345 13.22628355 33.46479109 18.64791088 34.32421875 27.2421875 C34.66344239 37.93358097 32.80539217 46.00103287 26 54.375 C19.15246582 61.39009211 11.66964055 64.21112075 1.9375 64.5625 C-7.47992956 64.16794397 -15.33957106 61.65351403 -22.2109375 55.05078125 C-27.54231826 48.93948234 -30.69835987 43.14428352 -31 35 C-30.29875 34.78085937 -29.5975 34.56171875 -28.875 34.3359375 C-18.81850384 30.97466297 -11.46018002 26.26996665 -6 17 C-3.34330313 11.47837866 -1.0307387 6.06251686 0 0 Z " fill="#861845" transform="translate(538,497)"/>
<path d="M0 0 C0.20625 1.2375 0.4125 2.475 0.625 3.75 C3.13932579 14.83747829 8.80269179 24.14802153 18.265625 30.52734375 C22.70234122 33.13051908 26.99971277 34.82972001 32 36 C31.70609246 43.93550367 28.82705599 50.16474903 23.17578125 55.828125 C15.05537077 62.35080766 6.76097465 64.72732127 -3.6015625 64.37890625 C-12.41419598 63.39634826 -19.06880363 59.52563699 -25 53 C-31.92411467 43.73260989 -33.39998874 34.3548601 -32 23 C-30.83336578 19.23981241 -29.24102603 16.2218809 -27 13 C-26.401875 12.0925 -25.80375 11.185 -25.1875 10.25 C-17.61852898 2.46477267 -10.8042412 -0.43216965 0 0 Z " fill="#831744" transform="translate(460,497)"/>
<path d="M0 0 C3.14290089 1.40695563 5.4100843 3.11027565 7.9375 5.4375 C13.44314613 10.30671364 17.39221174 12.3117362 24.6953125 13.27734375 C27.68984811 14.21630831 28.42466387 15.32006427 30 18 C33.7391484 25.50339176 32.9932194 34.99085153 30.5 42.8125 C26.78819689 51.62478781 20.90713672 57.17634494 12.296875 61.125 C4.55643246 64.07374002 -4.4964896 64.39960014 -12.40625 61.94140625 C-21.41753015 57.74296891 -27.56496549 51.67937124 -31.35546875 42.453125 C-32.52484472 38.00240918 -32.30680554 33.55947117 -32 29 C-31.02160156 28.64808594 -30.04320312 28.29617188 -29.03515625 27.93359375 C-15.53297388 22.92371863 -7.38811193 17.47967666 -1 4 C-0.31185796 1.77298883 -0.31185796 1.77298883 0 0 Z " fill="#871846" transform="translate(536,588)"/>
<path d="M0 0 C0.66 0 1.32 0 2 0 C2.35191406 0.71285156 2.70382812 1.42570313 3.06640625 2.16015625 C8.8272773 13.33594526 15.43174019 19.57269608 27.125 24.25 C30.39973115 25.10427769 33.64183436 25.59702012 37 26 C37.58856631 35.12277785 35.61602714 42.17124957 29.75 49.3125 C23.22675674 56.22685849 15.84845651 60.01795308 6.3125 60.3125 C-3.3731035 60.10846622 -12.04650875 58.07521538 -19 51 C-21.21454723 48.11467677 -23.13456912 45.1189529 -25 42 C-25.66 41.01 -26.32 40.02 -27 39 C-28.69859324 31.11367426 -29.57863961 22.27976557 -26.0625 14.8125 C-24.55968526 12.49111298 -23.67486217 11.26305852 -21.0859375 10.25390625 C-19.6026961 9.9923164 -18.11176649 9.77213084 -16.6171875 9.5859375 C-10.66346276 8.25301405 -4.30576992 4.30576992 0 0 Z " fill="#851744" transform="translate(460,591)"/>
<path d="M0 0 C7.13125013 4.16888763 13.43258703 10.0936886 16.5625 17.875 C18.85515532 26.67131019 18.94592003 37.508271 14.5 45.625 C11.30079574 50.23052114 8.19309346 54.49627103 3.5 57.625 C1.60849852 57.45907882 -0.28420378 57.27782008 -2.16015625 56.984375 C-4.7683284 56.58378762 -7.37361174 56.31582539 -10 56.0625 C-10.8559375 55.97871094 -11.711875 55.89492188 -12.59375 55.80859375 C-13.2228125 55.74800781 -13.851875 55.68742187 -14.5 55.625 C-14.72042969 54.3565625 -14.72042969 54.3565625 -14.9453125 53.0625 C-17.2391999 41.46123038 -22.02012437 34.62799083 -31.5 27.625 C-35.93417828 24.94949017 -40.53871261 23.11338622 -45.5 21.625 C-45.12878694 14.20073874 -40.41156104 9.17655544 -35.125 4.375 C-33.93418245 3.43569133 -32.72591571 2.51801618 -31.5 1.625 C-30.96375 1.20992188 -30.4275 0.79484375 -29.875 0.3671875 C-21.55455356 -4.94452607 -8.68004081 -3.91714662 0 0 Z " fill="#871946" transform="translate(551.5,434.375)"/>
<path d="M0 0 C5.67754495 3.93793133 10.12154258 8.17240015 12.5625 14.77734375 C12.60378956 16.44349889 12.61017969 18.11135923 12.5625 19.77734375 C11.716875 20.06867188 10.87125 20.36 10 20.66015625 C-1.19549352 24.7058005 -9.06513844 29.49004729 -15.4375 39.77734375 C-16.70218535 42.72348576 -17.58966372 45.6905032 -18.4375 48.77734375 C-19.08646236 50.45098352 -19.74330437 52.12195417 -20.4375 53.77734375 C-21.43330078 53.86822266 -21.43330078 53.86822266 -22.44921875 53.9609375 C-23.33222656 54.04472656 -24.21523438 54.12851562 -25.125 54.21484375 C-26.0428125 54.29734375 -26.960625 54.37984375 -27.90625 54.46484375 C-30.5069544 54.69546 -30.5069544 54.69546 -33.125 55.71484375 C-36.60880205 55.80900056 -38.18745753 54.11035305 -40.6640625 51.78515625 C-47.57361161 43.96245087 -51.06234301 35.17723575 -50.8046875 24.7421875 C-49.53806651 14.51489672 -44.2998423 7.14273923 -36.4375 0.77734375 C-25.67799173 -6.80274036 -11.16414347 -6.44668611 0 0 Z " fill="#811743" transform="translate(480.4375,436.22265625)"/>
<path d="M0 0 C7.5699516 1.8924879 13.75776587 6.56527805 17.96875 13.109375 C22.28287278 21.0186001 23.06595465 29.0764368 22 38 C19.59239372 45.77924341 14.42651849 53.29153663 7.43359375 57.5703125 C-1.67687622 62.21174553 -10.8780394 63.64208578 -20.96484375 61.31640625 C-28.90783903 58.36685022 -36.26113861 52.76982133 -40 45 C-40.94449634 41.35975369 -41.54792402 37.73131372 -42 34 C-41.12859375 33.92523437 -40.2571875 33.85046875 -39.359375 33.7734375 C-28.20926785 32.54258152 -17.98948313 29.18434857 -10 21 C-8.59825702 18.89934876 -7.30279989 16.7827158 -6.078125 14.57421875 C-5.72234375 14.05472656 -5.3665625 13.53523437 -5 13 C-4.34 13 -3.68 13 -3 13 C-2.814375 11.453125 -2.814375 11.453125 -2.625 9.875 C-2.06110186 6.37883154 -1.21317941 3.31602373 0 0 Z " fill="#861945" transform="translate(579,534)"/>
<path d="M0 0 C0.36351562 0.99 0.72703125 1.98 1.1015625 3 C5.88776809 15.72025558 10.53999737 23.46673019 23 30 C28.2164463 32.25687772 33.36577591 33.40061446 39 34 C38.91239411 36.06326977 38.80420727 38.1256716 38.6875 40.1875 C38.60048828 41.91033203 38.60048828 41.91033203 38.51171875 43.66796875 C37.73544455 48.72263971 35.55146511 51.8739397 31.6875 55.125 C31.13449219 55.60195313 30.58148438 56.07890625 30.01171875 56.5703125 C24.95637962 60.16303895 20.74364165 61.42101396 14.5625 61.75 C13.30566406 61.82734375 12.04882812 61.9046875 10.75390625 61.984375 C0.88861673 62.0254376 -6.81572053 58.78515284 -14 52 C-20.21047086 44.91560061 -22.62200772 37.13107562 -22.26953125 27.7578125 C-21.20131646 16.82796258 -16.24079311 10.32021635 -7.9609375 3.26171875 C-5.1622033 1.14778122 -3.57256451 0 0 0 Z " fill="#79163E" transform="translate(421,534)"/>
<path d="M0 0 C0.66 0.33 1.32 0.66 2 1 C1.52949219 1.42410156 1.05898438 1.84820312 0.57421875 2.28515625 C-6.14049012 8.61060664 -8.13948619 13.11477576 -8.5 22.3125 C-8.32177457 30.89278118 -6.00828669 36.46526314 -0.5 42.9375 C6.69118433 48.87022707 13.97096419 51.56386961 23.24609375 51.29296875 C29.19830509 50.65975478 33.79039882 49.26939665 38 45 C38.66 45 39.32 45 40 45 C37.64518076 51.86822278 33.33538179 56.58593315 27 60 C17.80779972 63.53871514 8.48624406 64.57150348 -0.83984375 61.03515625 C-8.54184385 57.34432438 -14.5348443 51.50706481 -18.03515625 43.6875 C-20.99865916 35.08644968 -21.36850763 25.63384129 -18.03125 17.08984375 C-14.01504908 8.95095174 -8.05101668 4.02550834 0 0 Z " fill="#631233" transform="translate(487,464)"/>
<path d="M0 0 C-0.32226562 0.67546875 -0.64453125 1.3509375 -0.9765625 2.046875 C-3.38381202 8.99298429 -3.136222 18.29097555 -0.375 25.125 C1.70862134 29.10486666 4.441214 31.3309105 8 34 C8 34.66 8 35.32 8 36 C8.5775 36.13277344 9.155 36.26554688 9.75 36.40234375 C11.92124749 36.97908136 13.91056738 37.74334744 16 38.5625 C24.65004175 41.45534757 32.80633137 40.73746288 41 37 C41.99 36.608125 42.98 36.21625 44 35.8125 C44.66 35.544375 45.32 35.27625 46 35 C43.70508754 41.83717442 38.67552599 45.97620578 32.453125 49.40234375 C24.46865745 52.721331 15.50628493 53.71644192 7.16796875 51.1171875 C-2.12206533 46.80752499 -8.93596639 40.43623255 -13 31 C-15.66450076 22.7332156 -14.62310898 13.12167579 -11.4140625 5.19140625 C-9.78393193 2.66515418 -8.65074104 1.89756241 -5.875 0.8125 C-2 0 -2 0 0 0 Z " fill="#621233" transform="translate(482,654)"/>
<path d="M0 0 C-0.66 0.66 -1.32 1.32 -2 2 C-3.41034584 9.56704786 -1.4806347 15.71473532 2.16015625 22.328125 C6.79845109 29.06399267 13.7095817 32.50783074 21.4375 34.6875 C29.62327431 35.68576516 34.63231205 34.25368544 42.2421875 30.99609375 C43.15226563 30.66738281 44.06234375 30.33867188 45 30 C45.66 30.33 46.32 30.66 47 31 C41.62778278 38.00878671 35.47764462 43.17411846 27 46 C15.43641182 46.81515727 6.48466292 46.82797864 -2.9765625 39.4609375 C-8.65227554 34.36487175 -13.63760621 26.29263487 -14.16796875 18.546875 C-14.24696464 7.23466412 -14.24696464 7.23466412 -12 3 C-3.73354232 -1.86677116 -3.73354232 -1.86677116 0 0 Z " fill="#631233" transform="translate(480,564)"/>
<path d="M0 0 C0.66 0.33 1.32 0.66 2 1 C1.01 2.485 1.01 2.485 0 4 C-0.66 4 -1.32 4 -2 4 C-2.67561748 5.6630584 -3.33933281 7.33094605 -4 9 C-4.53625 10.175625 -5.0725 11.35125 -5.625 12.5625 C-8.15317244 19.43394304 -8.1434901 27.02448663 -5.375 33.8125 C-1.98114412 40.40900861 2.51074773 45.33216176 9 49 C13.2655166 50.30663272 17.44987214 50.22140467 21.875 50.25 C22.66519531 50.270625 23.45539062 50.29125 24.26953125 50.3125 C29.30738008 50.34602978 32.58290051 49.67033742 37 47 C38.33333333 46.33333333 39.66666667 45.66666667 41 45 C38.53019059 52.85848449 31.78561455 56.9845427 25 61 C17.75939809 63.41353397 6.99161122 63.1615609 -0.3125 60.8125 C-3.20838919 59.26211955 -3.9055293 58.22848726 -5.17578125 55.15625 C-5.81843144 52.89242876 -6.42026191 50.61668928 -6.984375 48.33203125 C-9.26494194 40.8500174 -14.90205312 35.61064276 -21 31 C-20.41524732 27.47589055 -19.14472253 25.79667174 -16.6875 23.25 C-12.27449905 18.37580428 -9.58355966 13.69335228 -8.1875 7.25 C-6.92381006 3.79148015 -6.4914845 3.30105871 -3.5 1.5 C-1.7675 0.7575 -1.7675 0.7575 0 0 Z " fill="#641233" transform="translate(583,466)"/>
<path d="M0 0 C-0.33 0.33 -0.66 0.66 -1 1 C-2.00932632 6.6233895 0.53665542 10.13669798 3.39453125 14.73046875 C6.30766171 18.84854368 8.85381091 20.58916983 13.5 22.625 C14.4590625 23.05039062 15.418125 23.47578125 16.40625 23.9140625 C24.78848666 27.42349291 31.72050685 26.06960801 40 23 C40.69609375 22.61585938 41.3921875 22.23171875 42.109375 21.8359375 C44 21 44 21 47 22 C41.1017986 29.56221911 34.67564319 35.18140283 25 37 C14.72496338 37.97563449 6.64206277 37.10410759 -2 31 C-8.0113349 25.80542256 -12.60210109 19.03570421 -13.23828125 10.984375 C-13.24857149 8.30891324 -13.17958663 5.66885685 -13 3 C-11.21189234 2.30329584 -9.41937948 1.61788811 -7.625 0.9375 C-6.62726563 0.55464844 -5.62953125 0.17179688 -4.6015625 -0.22265625 C-2 -1 -2 -1 0 0 Z " fill="#641334" transform="translate(517,614)"/>
<path d="M0 0 C3.63 0.66 7.26 1.32 11 2 C11.58856631 11.12277785 9.61602714 18.17124957 3.75 25.3125 C-2.77324326 32.22685849 -10.15154349 36.01795308 -19.6875 36.3125 C-29.4758246 36.10630233 -37.88179387 33.98936982 -45 27 C-46.8623495 24.73792671 -48.41564125 22.47556055 -50 20 C-49.34 19.34 -48.68 18.68 -48 18 C-47.4225 18.61875 -46.845 19.2375 -46.25 19.875 C-40.99059838 24.84221264 -35.00319914 25.0508707 -28 25 C-19.11661612 23.78538183 -11.00420171 19.75048667 -5 13 C-3.8348328 11.14001017 -3.8348328 11.14001017 -2.875 9.125 C-2.54242188 8.46757813 -2.20984375 7.81015625 -1.8671875 7.1328125 C-0.75516427 4.58902555 -0.75516427 4.58902555 0 0 Z " fill="#631233" transform="translate(486,615)"/>
<path d="M0 0 C2 2 2 2 3.5625 5.625 C6.78813684 12.1837949 12.4297919 17.32466975 19.25 20 C28.06520349 22.37748045 36.77631818 21.81813799 45 18 C45.99 17.608125 46.98 17.21625 48 16.8125 C48.66 16.544375 49.32 16.27625 50 16 C48.27837858 22.31261188 43.84608996 26.3176446 38.36328125 29.55859375 C28.83608651 34.04871357 19.18261863 34.63701907 9.125 31.4375 C0.02406705 27.60201137 -5.99235649 20.97879714 -10 12 C-10.6752196 9.23204681 -10.89388671 6.86505889 -11 4 C-7.37 2.68 -3.74 1.36 0 0 Z " fill="#631333" transform="translate(518,528)"/>
<path d="M0 0 C3.96 1.32 7.92 2.64 12 4 C11.70609246 11.93550367 8.82705599 18.16474903 3.17578125 23.828125 C-4.94462923 30.35080766 -13.23902535 32.72732127 -23.6015625 32.37890625 C-32.33895766 31.4047369 -39.14558816 27.54316618 -45 21 C-46.21875 18.78125 -46.21875 18.78125 -47 17 C-44.29158694 17.47795525 -41.832142 18.06190508 -39.24609375 19.015625 C-32.24063713 21.1400234 -23.94158788 21.22018451 -17.125 18.375 C-15.72619493 17.62619729 -14.34982407 16.83386815 -13 16 C-11.93652344 15.38125 -11.93652344 15.38125 -10.8515625 14.75 C-4.9686481 10.90095563 -2.76233669 6.3879036 0 0 Z " fill="#631333" transform="translate(480,529)"/>
<path d="M0 0 C0.495 1.19625 0.99 2.3925 1.5 3.625 C4.66375974 9.89701493 9.79723952 13.3571352 16.25 15.875 C24.86905308 18.3715533 33.88552853 17.82516505 42 14 C44.12524569 12.77237361 46.02538791 11.4683013 48 10 C46.25088485 16.2190761 41.85180335 21.24138793 36.421875 24.58984375 C27.29516516 29.1932281 18.12645763 30.64312264 8.03515625 28.31640625 C0.09216097 25.36685022 -7.26113861 19.76982133 -11 12 C-11.94449634 8.35975369 -12.54792402 4.73131372 -13 1 C-11.58366664 0.83052421 -10.16691467 0.66454493 -8.75 0.5 C-7.56664062 0.36078125 -7.56664062 0.36078125 -6.359375 0.21875 C-4 0 -4 0 0 0 Z " fill="#641334" transform="translate(550,567)"/>
<path d="M0 0 C1.98 0 3.96 0 6 0 C9.57373271 7.34516127 11.8578626 14.70382161 13.75 22.625 C13.96035889 23.49471436 14.17071777 24.36442871 14.38745117 25.26049805 C18.87747186 44.75030972 17.60072483 63.69338689 13 83 C12.01 83 11.02 83 10 83 C8.91654084 78.9912011 9.10639537 75.9570596 9.95703125 71.97265625 C11.05921538 66.18858148 11.34604953 60.62817765 11.3125 54.75 C11.30903564 53.75073486 11.30557129 52.75146973 11.30200195 51.72192383 C11.18205476 43.49593174 10.13757806 35.96643673 8 28 C7.7834375 27.11699219 7.566875 26.23398437 7.34375 25.32421875 C5.69314901 19.16394006 3.00920741 13.64895068 0.109375 7.98046875 C-1.09687309 4.73973884 -1.03219842 3.24662411 0 0 Z " fill="#759533" transform="translate(486,362)"/>
<path d="M0 0 C-1.65968817 9.95812903 -5.67717084 19.85577643 -13 27 C-15.37246321 28.56672099 -17.46363801 29.80610576 -20 31 C-20.59554687 31.30035156 -21.19109375 31.60070312 -21.8046875 31.91015625 C-27.74890727 34.56162358 -33.5912051 34.28839577 -40 34 C-38.49775154 30.26107049 -36.39834702 28.45906395 -33.25 26 C-28.75110734 22.41972941 -24.34966821 18.76000408 -20 15 C-15.60674359 11.22160659 -11.20347915 7.45734652 -6.75 3.75 C-5.87859375 3.02296875 -5.0071875 2.2959375 -4.109375 1.546875 C-2 0 -2 0 0 0 Z " fill="#92AA3B" transform="translate(554,366)"/>
<path d="M0 0 C-6.93034757 7.16135915 -14.44355908 13.64983981 -22.26953125 19.80859375 C-26.15346247 22.92574027 -29.93395361 26.16137847 -33.71020508 29.40771484 C-37.7897436 32.8948718 -37.7897436 32.8948718 -40 34 C-39.42339589 24.91848532 -37.12244098 17.8877461 -31 11 C-24.89452321 6.2886872 -18.47066865 2.89418576 -11 1 C-10.113125 0.773125 -9.22625 0.54625 -8.3125 0.3125 C-5.52278243 -0.06448886 -2.81138597 -0.06538107 0 0 Z " fill="#AEB643" transform="translate(549,360)"/>
<path d="M0 0 C6.2300028 -0.10048392 9.50598172 0.88088427 14.3125 4.9375 C20.44981857 10.96982556 23.12776265 16.90850211 23.375 25.5 C23.30868167 29.69131833 23.30868167 29.69131833 21 32 C19.68 32 18.36 32 17 32 C16.96261719 31.13117187 16.92523437 30.26234375 16.88671875 29.3671875 C16.42133351 21.20925796 15.9511512 15.5409177 9.75 9.8125 C6.37989713 7.07474052 3.0624876 5.49234238 -1 4 C-0.67 2.68 -0.34 1.36 0 0 Z " fill="#E8C288" transform="translate(503,649)"/>
<path d="M0 0 C6.38493816 0.58044892 12.09026323 3.6276094 16.3125 8.375 C17.23095048 9.56623277 18.12904728 10.77361174 19 12 C19.61875 12.86625 20.2375 13.7325 20.875 14.625 C22.66383957 19.9915187 22.22454601 25.39466633 22 31 C20.0625 31.5625 20.0625 31.5625 18 32 C16.25520901 30.25520901 16.78967964 27.68598707 16.6875 25.3125 C16.18462846 19.06358163 14.96340387 15.61588316 10.16796875 11.3828125 C6.32075523 8.3079841 2.84253067 6.21063267 -2 5 C-1.125 1.125 -1.125 1.125 0 0 Z " fill="#CFA25F" transform="translate(540,437)"/>
<path d="M0 0 C6.47480545 0.48561041 11.48709209 3.21571975 15.80859375 8.00390625 C20.11829311 13.61581693 21.14835084 17.6147115 21.0625 24.6875 C21.05798828 25.38939453 21.05347656 26.09128906 21.04882812 26.81445312 C21.03706927 28.54300538 21.01913454 30.27151365 21 32 C19.0625 32.5625 19.0625 32.5625 17 33 C15.18529401 31.18529401 15.74125018 28.26205735 15.625 25.8125 C15.10311109 18.78234935 13.96020052 14.60798039 8.6875 9.8125 C5.66636361 7.36345114 2.57268723 5.56849683 -1 4 C-0.67 2.68 -0.34 1.36 0 0 Z " fill="#E0B776" transform="translate(503,469)"/>
<path d="M0 0 C3.67499199 -0.53565381 4.89895042 -0.07020978 8.0078125 2.08984375 C9.06369349 3.02031806 10.10231496 3.97065853 11.125 4.9375 C11.65834961 5.43677002 12.19169922 5.93604004 12.74121094 6.45043945 C18.18585837 11.79221332 19.99119268 16.74082309 20.3125 24.3125 C20.03880062 27.54215267 19.76896479 29.34655281 18 32 C16.68 31.67 15.36 31.34 14 31 C13.91363281 29.91460937 13.82726562 28.82921875 13.73828125 27.7109375 C13.59749321 26.2655136 13.45550205 24.82020654 13.3125 23.375 C13.25900391 22.66214844 13.20550781 21.94929688 13.15039062 21.21484375 C12.56191614 15.63712908 11.02448812 12.93089537 7 9 C4.8530127 7.5122174 4.8530127 7.5122174 2.6875 6.625 C1.99011719 6.30789063 1.29273438 5.99078125 0.57421875 5.6640625 C0.05472656 5.44492187 -0.46476563 5.22578125 -1 5 C-0.67 3.35 -0.34 1.7 0 0 Z " fill="#D9AD6C" transform="translate(602,471)"/>
<path d="M0 0 C4.5073198 -0.4426832 6.50564336 0.63655475 10 3.4375 C15.46901255 8.09024202 19.50156028 12.57931443 20.328125 19.91015625 C20.39119263 23.89918389 20.26619208 27.20142376 19 31 C17.35 31 15.7 31 14 31 C13.97421875 30.05898438 13.9484375 29.11796875 13.921875 28.1484375 C13.71216475 18.70490723 13.71216475 18.70490723 9 11 C6.18317977 8.46486179 3.46247268 6.53887674 0 5 C0 3.35 0 1.7 0 0 Z " fill="#DBAD6E" transform="translate(546,504)"/>
<path d="M0 0 C6.5482488 1.02901053 12.23926156 4.00613254 16.7578125 8.90625 C20.99636919 15.39729681 20.69841501 22.48704998 20 30 C19.67 30.66 19.34 31.32 19 32 C17.68 32 16.36 32 15 32 C14.98582031 31.0821875 14.97164062 30.164375 14.95703125 29.21875 C14.61115974 18.59961763 14.61115974 18.59961763 9 10 C6.1184477 8.03552465 3.17421072 6.43842229 0 5 C0 3.35 0 1.7 0 0 Z " fill="#E6BF81" transform="translate(541,595)"/>
<path d="M0 0 C3.54091851 -0.46997646 4.80462363 -0.13599727 7.7890625 1.94140625 C18.78405489 12.10344467 18.78405489 12.10344467 19.15625 20.54296875 C19.18427906 24.03609002 19.13070878 27.50959137 19 31 C17.35 31.33 15.7 31.66 14 32 C13.99742187 31.09378906 13.99484375 30.18757812 13.9921875 29.25390625 C13.73065183 21.01553264 12.95655776 14.9946594 7 9 C4.45095872 7.05961669 1.85784257 5.4434281 -1 4 C-0.67 2.68 -0.34 1.36 0 0 Z " fill="#DAB16B" transform="translate(505,554)"/>
<path d="M0 0 C0.33 0 0.66 0 1 0 C3.29444837 17.20836275 2.01038814 33.17069264 -2 50 C-2.99 50 -3.98 50 -5 50 C-6.03518906 46.16980046 -5.94894064 43.24216707 -5.125 39.4375 C-3.72898802 32.72733575 -3.59893204 26.00467217 -3.43017578 19.17358398 C-3.40165527 18.29130127 -3.37313477 17.40901855 -3.34375 16.5 C-3.32505859 15.7059375 -3.30636719 14.911875 -3.28710938 14.09375 C-3 12 -3 12 -1 9 C-0.54605448 6.72087062 -0.54605448 6.72087062 -0.375 4.3125 C-0.30023438 3.50425781 -0.22546875 2.69601562 -0.1484375 1.86328125 C-0.09945313 1.24839844 -0.05046875 0.63351562 0 0 Z " fill="#63882A" transform="translate(501,395)"/>
<path d="M0 0 C-0.0625 2.3125 -0.0625 2.3125 -1 5 C-3.31254012 6.04718798 -5.6485148 7.04346365 -8 8 C-12.71738561 12.97237943 -14.21734262 16.95571031 -14.625 23.75 C-14.73714844 25.50570312 -14.73714844 25.50570312 -14.8515625 27.296875 C-14.92503906 28.63492188 -14.92503906 28.63492188 -15 30 C-16.32 30 -17.64 30 -19 30 C-20.76000919 28.23999081 -20.21414179 25.82505906 -20.25 23.4375 C-20.18551444 16.65039451 -18.91028433 12.15931639 -15.375 6.3125 C-11.22249645 2.26927286 -5.9395881 -2.18684834 0 0 Z " fill="#DDB371" transform="translate(459,596)"/>
<path d="M0 0 C0.375 2.25 0.375 2.25 0 5 C-1.43247673 5.93277555 -2.86982977 6.85931145 -4.3359375 7.73828125 C-8.79733061 11.12098072 -10.70781985 16.08793874 -11.53125 21.4765625 C-11.78063991 24.65628381 -11.94578944 27.81143342 -12 31 C-15.875 30.125 -15.875 30.125 -17 29 C-17.88139373 20.53862023 -17.45709458 13.74670649 -12 7 C-5.10359408 0 -5.10359408 0 0 0 Z " fill="#DBB270" transform="translate(423,540)"/>
<path d="M0 0 C0.33 0.66 0.66 1.32 1 2 C-5.75 12.5 -5.75 12.5 -11 16 C-12.89150148 15.83407882 -14.78420378 15.65282008 -16.66015625 15.359375 C-19.2683284 14.95878762 -21.87361174 14.69082539 -24.5 14.4375 C-25.3559375 14.35371094 -26.211875 14.26992188 -27.09375 14.18359375 C-27.7228125 14.12300781 -28.351875 14.06242187 -29 14 C-29 12.02 -29 10.04 -29 8 C-28.20078125 8.04640625 -27.4015625 8.0928125 -26.578125 8.140625 C-17.87795921 8.42654594 -8.40215194 8.02734435 -1.66015625 1.859375 C-1.11230469 1.24578125 -0.56445312 0.6321875 0 0 Z " fill="#621132" transform="translate(566,476)"/>
<path d="M0 0 C6.50245969 0.89338142 10.435399 4.73531293 14.40234375 9.78515625 C17.97635106 15.77575212 17.37123096 22.23534689 17 29 C15.35 29.33 13.7 29.66 12 30 C11.97421875 29.2265625 11.9484375 28.453125 11.921875 27.65625 C11.56685071 21.13671305 11.1617086 15.26985586 7 10 C5.1984892 8.55249363 5.1984892 8.55249363 3.25 7.3125 C2.1775 6.549375 1.105 5.78625 0 5 C-0.4375 2.1875 -0.4375 2.1875 0 0 Z " fill="#E5C084" transform="translate(577,540)"/>
<path d="M0 0 C-0.20703125 2.38671875 -0.20703125 2.38671875 -1 5 C-3.07421875 6.08203125 -3.07421875 6.08203125 -5.6875 6.8125 C-12.88733412 9.33604701 -15.8030325 14.36925259 -19 21 C-20.32 20.67 -21.64 20.34 -23 20 C-22.63582668 14.05183581 -21.07764249 10.38007634 -17 6 C-11.47639422 1.20546075 -7.34054114 -0.16683048 0 0 Z " fill="#E0B878" transform="translate(402,471)"/>
<path d="M0 0 C0.66 0.33 1.32 0.66 2 1 C1.59007812 1.43570312 1.18015625 1.87140625 0.7578125 2.3203125 C-5.61629158 9.36537491 -6.37283071 15.72449633 -7 25 C-11.455 24.01 -11.455 24.01 -16 23 C-17.18235715 18.2705714 -16.62669727 17.22689423 -14.4375 13.16015625 C-10.91646394 7.86903413 -5.87587487 2.59229774 0 0 Z " fill="#641333" transform="translate(523,434)"/>
<path d="M0 0 C0.625 1.875 0.625 1.875 1 4 C-1.217841 6.217841 -2.35153274 6.50134426 -5.3125 7.3125 C-11.1150071 9.17227792 -13.85247906 12.21121736 -17.125 17.3125 C-18.053125 18.6428125 -18.053125 18.6428125 -19 20 C-19.99 20 -20.98 20 -22 20 C-22.50791521 14.66689031 -21.34625913 12.13879419 -18 8 C-12.48566905 2.84529933 -7.73463435 -0.55247388 0 0 Z " fill="#DEB371" transform="translate(461,437)"/>
<path d="M0 0 C0 1.32 0 2.64 0 4 C-1.01320313 4.43699219 -1.01320313 4.43699219 -2.046875 4.8828125 C-8.94603544 8.05323594 -12.17169087 10.794889 -15.25 17.875 C-15.4975 18.57625 -15.745 19.2775 -16 20 C-17.32 19.67 -18.64 19.34 -20 19 C-20.50939993 13.65130078 -19.36708449 11.14410399 -16 7 C-6.8609367 -1.90581575 -6.8609367 -1.90581575 0 0 Z " fill="#E4BB7D" transform="translate(455,504)"/>
<path d="M0 0 C7.07757579 3.46656774 12.88230709 8.58983135 16 16 C16.125 18.75 16.125 18.75 16 21 C13.03 21.66 10.06 22.32 7 23 C6.87044922 21.7315625 6.87044922 21.7315625 6.73828125 20.4375 C5.92376523 13.86159086 5.00514962 8.86244182 1.0234375 3.48828125 C0 2 0 2 0 0 Z " fill="#651334" transform="translate(477,435)"/>
<path d="M0 0 C3.43349617 -0.41524232 4.77750176 -0.14715662 7.7109375 1.79296875 C8.59007812 2.58316406 9.46921875 3.37335937 10.375 4.1875 C11.26960937 4.96480469 12.16421875 5.74210938 13.0859375 6.54296875 C15 9 15 9 14.7890625 11.80078125 C14.52867187 12.52652344 14.26828125 13.25226562 14 14 C13.01 14 12.02 14 11 14 C10.443125 13.278125 9.88625 12.55625 9.3125 11.8125 C6.3683624 8.23179211 2.98895096 6.27525116 -1 4 C-0.67 2.68 -0.34 1.36 0 0 Z " fill="#E6BF82" transform="translate(505,554)"/>
<path d="M0 0 C4.66906905 0.42446082 9.18877961 2.29296496 13 5 C14 7.75 14 7.75 14 10 C13.01 10.495 13.01 10.495 12 11 C10.265625 10.29296875 10.265625 10.29296875 8.25 9.1875 C4.90654977 7.42425709 1.63156259 6.08946878 -2 5 C-1.125 1.125 -1.125 1.125 0 0 Z " fill="#E1BA7E" transform="translate(540,437)"/>
<path d="M0 0 C2.66389689 2.66389689 2.98142077 4.40323509 3.09765625 8.13671875 C3.08605469 9.30847656 3.07445312 10.48023438 3.0625 11.6875 C3.05347656 12.86699219 3.04445313 14.04648437 3.03515625 15.26171875 C3.02355469 16.16535156 3.01195312 17.06898438 3 18 C1.35 18.33 -0.3 18.66 -2 19 C-2.25011345 16.77308629 -2.47428352 14.54324878 -2.6875 12.3125 C-2.81511719 11.07113281 -2.94273437 9.82976563 -3.07421875 8.55078125 C-2.99375562 4.70125554 -2.26578663 3.04628897 0 0 Z " fill="#D9AF72" transform="translate(591,551)"/>
<path d="M0 0 C1.84586777 3.14969501 2.27170838 5.48884674 2.25 9.125 C2.25773438 10.42824219 2.25773438 10.42824219 2.265625 11.7578125 C2 14 2 14 0 16 C-1.32 16 -2.64 16 -4 16 C-4 12.37 -4 8.74 -4 5 C-3.01 4.67 -2.02 4.34 -1 4 C-0.26676204 1.98491642 -0.26676204 1.98491642 0 0 Z " fill="#DAAE6F" transform="translate(524,665)"/>
<path d="M0 0 C0.515625 0.2475 1.03125 0.495 1.5625 0.75 C1.2325 2.4 0.9025 4.05 0.5625 5.75 C-3.8925 7.235 -3.8925 7.235 -8.4375 8.75 C-8.7675 7.1 -9.0975 5.45 -9.4375 3.75 C-3.0375 -0.31153846 -3.0375 -0.31153846 0 0 Z " fill="#EBCB8B" transform="translate(457.4375,595.25)"/>
<path d="M0 0 C4.12751449 0.60698743 7.3321148 2.03810791 11 4 C10.625 5.9375 10.625 5.9375 10 8 C9.01 8.495 9.01 8.495 8 9 C6.0546875 8.22265625 6.0546875 8.22265625 3.875 7.0625 C3.15054688 6.68222656 2.42609375 6.30195312 1.6796875 5.91015625 C1.12539063 5.60980469 0.57109375 5.30945313 0 5 C0 3.35 0 1.7 0 0 Z " fill="#E6C28B" transform="translate(541,595)"/>
<path d="M0 0 C1.6875 1.4375 1.6875 1.4375 3 4 C2.35087445 7.14284955 1.23221253 10.04268993 0 13 C-1.32 12.67 -2.64 12.34 -4 12 C-4.50423019 6.70558305 -3.18923033 4.18586481 0 0 Z " fill="#DBAC6A" transform="translate(439,511)"/>
<path d="M0 0 C3.52269485 -0.4025937 4.79940808 -0.13372795 7.8125 1.875 C8.534375 2.57625 9.25625 3.2775 10 4 C10 4.66 10 5.32 10 6 C9.34 6 8.68 6 8 6 C8 6.66 8 7.32 8 8 C4.65626525 7.44271087 1.96687001 6.64826111 -1 5 C-0.67 3.35 -0.34 1.7 0 0 Z " fill="#E6BD89" transform="translate(602,471)"/>
<path d="M0 0 C2.66355234 -0.39169887 4.39224373 -0.40564529 6.66796875 1.11328125 C8.1510888 2.36389317 9.57954352 3.67864514 11 5 C10.01 6.485 10.01 6.485 9 8 C5.65626525 7.44271087 2.96687001 6.64826111 0 5 C0 3.35 0 1.7 0 0 Z " fill="#E9C48C" transform="translate(546,504)"/>
<path d="M0 0 C0.33 0 0.66 0 1 0 C2.3302664 9.97699803 2.09502917 19.95614824 2 30 C1.67 30 1.34 30 1 30 C0.67 25.71 0.34 21.42 0 17 C-0.66 17.33 -1.32 17.66 -2 18 C-2.625 15.1875 -2.625 15.1875 -3 12 C-2.34 11.01 -1.68 10.02 -1 9 C-0.54605448 6.72087062 -0.54605448 6.72087062 -0.375 4.3125 C-0.30023438 3.50425781 -0.22546875 2.69601562 -0.1484375 1.86328125 C-0.09945313 1.24839844 -0.05046875 0.63351562 0 0 Z " fill="#567528" transform="translate(501,395)"/>
<path d="M0 0 C0.33 0 0.66 0 1 0 C1.02692484 2.29160319 1.04636124 4.58329546 1.0625 6.875 C1.07410156 8.15117188 1.08570313 9.42734375 1.09765625 10.7421875 C1 14 1 14 0 16 C-1.32 16 -2.64 16 -4 16 C-4 12.37 -4 8.74 -4 5 C-3.34 5.66 -2.68 6.32 -2 7 C-1.34 4.69 -0.68 2.38 0 0 Z " fill="#D6A96D" transform="translate(560,611)"/>
<path d="M0 0 C2.0625 1.5 2.0625 1.5 4 4 C4.05928384 6.82406647 3.55954815 9.20225927 3 12 C2.01 12 1.02 12 0 12 C-0.92844389 7.66726186 -0.92844389 4.33273814 0 0 Z " fill="#5C7E26" transform="translate(496,433)"/>
<path d="M0 0 C0 3 0 3 -1.5 4.6875 C-1.995 5.120625 -2.49 5.55375 -3 6 C-0.69 6.66 1.62 7.32 4 8 C4 8.33 4 8.66 4 9 C0.04 9 -3.92 9 -8 9 C-5.73106888 4.46213776 -3.90133466 3.05321843 0 0 Z " fill="#60792A" transform="translate(522,391)"/>
<path d="M0 0 C0.33 0 0.66 0 1 0 C1 5.61 1 11.22 1 17 C0.67 17 0.34 17 0 17 C-2.03097258 11.79563275 -3.18914012 6.89852904 -1 1.5625 C-0.67 1.046875 -0.34 0.53125 0 0 Z " fill="#688C2D" transform="translate(501,409)"/>
<path d="M0 0 C2 1.3125 2 1.3125 4 3 C4 3.99 4 4.98 4 6 C2.02 6.99 2.02 6.99 0 8 C-1.32 6.35 -2.64 4.7 -4 3 C-3.01 3 -2.02 3 -1 3 C-0.67 2.01 -0.34 1.02 0 0 Z " fill="#D6AB68" transform="translate(554,444)"/>
<path d="M0 0 C2.9375 0.375 2.9375 0.375 6 1 C6.33 1.66 6.66 2.32 7 3 C6.01 3 5.02 3 4 3 C4 3.66 4 4.32 4 5 C2.35 4.67 0.7 4.34 -1 4 C-0.67 2.68 -0.34 1.36 0 0 Z " fill="#E7C182" transform="translate(503,469)"/>
<path d="M0 0 C0.66 0.33 1.32 0.66 2 1 C-1.63 4.63 -5.26 8.26 -9 12 C-9 7.8407692 -6.75316432 5.85455565 -4 3 C-1.6875 1.125 -1.6875 1.125 0 0 Z " fill="#2B2B2B" transform="translate(519,362)"/>
<path d="M0 0 C0.33 0 0.66 0 1 0 C1.05395478 1.62463842 1.09277195 3.24978541 1.125 4.875 C1.14820313 5.77992188 1.17140625 6.68484375 1.1953125 7.6171875 C1 10 1 10 -1 12 C-3.125 11.625 -3.125 11.625 -5 11 C-4.0409375 10.2265625 -4.0409375 10.2265625 -3.0625 9.4375 C-0.44208319 6.34064377 -0.30610183 3.97932377 0 0 Z " fill="#BD8559" transform="translate(525,669)"/>
<path d="M0 0 C-1.65 1.65 -3.3 3.3 -5 5 C-5.33 4.34 -5.66 3.68 -6 3 C-8.52733235 2.34444881 -8.52733235 2.34444881 -11 2 C-11 1.67 -11 1.34 -11 1 C-7.26562152 0.12132271 -3.83225427 -0.08912219 0 0 Z " fill="#848B33" transform="translate(549,360)"/>
<path d="M0 0 C0.33 0 0.66 0 1 0 C1.33 1.65 1.66 3.3 2 5 C2.99 4.34 3.98 3.68 5 3 C4.75 4.8125 4.75 4.8125 4 7 C2.68 7.99 1.36 8.98 0 10 C0 6.7 0 3.4 0 0 Z " fill="#CF9C64" transform="translate(520,670)"/>
<path d="M0 0 C-0.33 1.65 -0.66 3.3 -1 5 C-1.66 5 -2.32 5 -3 5 C-3 3.68 -3 2.36 -3 1 C-3.99 0.67 -4.98 0.34 -6 0 C-3.50907189 -1.24546405 -2.58919267 -0.7767578 0 0 Z " fill="#D5A677" transform="translate(459,596)"/>
<path d="M0 0 C0.99 0.33 1.98 0.66 3 1 C4.1875 4.0625 4.1875 4.0625 5 7 C4.01 7 3.02 7 2 7 C1.34 4.69 0.68 2.38 0 0 Z " fill="#641334" transform="translate(422,474)"/>
</svg>
